<svg width="19" height="20" viewBox="0 0 19 20" fill="none" xmlns="http://www.w3.org/2000/svg">
<g id="Group 3235">
<path id="Vector" d="M1.76465 9.30859V12.0782C1.76465 15.5597 1.76465 17.3005 2.84623 18.382C3.92781 19.4636 5.66858 19.4636 9.15014 19.4636H10.0733C13.5549 19.4636 15.2957 19.4636 16.3772 18.382M17.4588 9.30859V12.0782C17.4588 13.1581 17.4588 14.0705 17.4265 14.8477" stroke="#0AC2B7" stroke-linecap="round"/>
<path id="Vector_2" d="M7.30411 1H11.92M7.30411 1L6.70243 7.01675C6.53029 8.73815 7.8821 10.2319 9.61206 10.2319C11.3421 10.2319 12.6938 8.73815 12.5218 7.01675L11.92 1M7.30411 1H5.38175C4.54347 1 4.12433 1 3.76485 1.09855C3.00738 1.3062 2.3737 1.82569 2.02153 2.52773M7.30411 1L6.63523 7.68874C6.49086 9.13245 5.27601 10.2319 3.8251 10.2319C2.04294 10.2319 0.706293 8.60143 1.0558 6.85386L1.11875 6.53912M11.92 1H13.8424C14.6807 1 15.0998 1 15.4593 1.09855C16.2167 1.3062 16.8505 1.82569 17.2026 2.52773C17.3698 2.8609 17.4519 3.2719 17.6164 4.0939L18.1683 6.85386C18.5179 8.60143 17.1812 10.2319 15.3991 10.2319C13.9482 10.2319 12.7333 9.13245 12.5889 7.68874L11.92 1Z" stroke="#0AC2B7" stroke-linecap="round"/>
<path id="Vector_3" d="M7.30371 19.0028V16.2333C7.30371 15.3704 7.30371 14.939 7.48923 14.6177C7.61077 14.4072 7.78561 14.2323 7.9961 14.1109C8.31746 13.9253 8.74887 13.9253 9.61168 13.9253C10.4745 13.9253 10.9059 13.9253 11.2273 14.1109C11.4377 14.2323 11.6126 14.4072 11.7341 14.6177C11.9196 14.939 11.9196 15.3704 11.9196 16.2333V19.0028" stroke="#0AC2B7" stroke-linecap="round"/>
</g>
</svg>
