<svg width="16" height="22" viewBox="0 0 16 22" fill="none" xmlns="http://www.w3.org/2000/svg">
<path id="Vector" d="M8 0C3.582 0 0 3.69394 0 8.25C0 10.044 0.570333 11.6903 1.51833 13.0384C1.53533 13.0708 1.538 13.1068 1.55733 13.1378L6.89067 21.3878C7.138 21.7704 7.55467 22 8 22C8.44533 22 8.862 21.7704 9.10933 21.3878L14.4427 13.1378C14.4623 13.1068 14.4647 13.0708 14.4817 13.0384C15.4297 11.6903 16 10.044 16 8.25C16 3.69394 12.418 0 8 0ZM8 11C6.52733 11 5.33333 9.76869 5.33333 8.25C5.33333 6.73131 6.52733 5.5 8 5.5C9.47267 5.5 10.6667 6.73131 10.6667 8.25C10.6667 9.76869 9.47267 11 8 11Z" fill="#0AC2B7"/>
</svg>
