<svg width="39" height="39" viewBox="0 0 39 39" fill="none" xmlns="http://www.w3.org/2000/svg">
<g id="Group">
<g id="Vector">
<mask id="path-1-inside-1_1_740" fill="white">
<path d="M25.3619 14.3176L12.5318 24.5137C12.2769 24.7261 12.192 25.1509 12.4469 25.4058C12.5743 25.5757 12.7443 25.6607 12.9567 25.6607C13.0841 25.6607 13.2541 25.6182 13.339 25.5333L26.1691 15.3372C26.424 15.1248 26.509 14.6999 26.2541 14.445C26.0416 14.1476 25.6593 14.1052 25.3619 14.3176Z"/>
</mask>
<path d="M25.3619 14.3176L12.5318 24.5137C12.2769 24.7261 12.192 25.1509 12.4469 25.4058C12.5743 25.5757 12.7443 25.6607 12.9567 25.6607C13.0841 25.6607 13.2541 25.6182 13.339 25.5333L26.1691 15.3372C26.424 15.1248 26.509 14.6999 26.2541 14.445C26.0416 14.1476 25.6593 14.1052 25.3619 14.3176Z" fill="black"/>
<path d="M25.3619 14.3176L21.8745 9.43517L21.7493 9.52456L21.6289 9.62025L25.3619 14.3176ZM12.5318 24.5137L8.79887 19.8163L8.74429 19.8597L8.69074 19.9043L12.5318 24.5137ZM12.4469 25.4058L17.2469 21.8058L16.991 21.4647L16.6895 21.1632L12.4469 25.4058ZM13.339 25.5333L9.60606 20.8359L9.33826 21.0488L9.09639 21.2906L13.339 25.5333ZM26.1691 15.3372L29.9021 20.0345L29.9567 19.9911L30.0102 19.9465L26.1691 15.3372ZM26.2541 14.445L21.3717 17.9325L21.6603 18.3365L22.0114 18.6877L26.2541 14.445ZM21.6289 9.62025L8.79887 19.8163L16.2648 29.211L29.0949 19.0149L21.6289 9.62025ZM8.69074 19.9043C7.35741 21.0154 6.55504 22.5677 6.34752 24.176C6.12932 25.867 6.55027 27.9945 8.20424 29.6485L16.6895 21.1632C18.0886 22.5622 18.4246 24.3498 18.2489 25.7116C18.0838 26.9906 17.4514 28.2243 16.373 29.123L8.69074 19.9043ZM7.64688 29.0058C8.90742 30.6865 10.8557 31.6607 12.9567 31.6607V19.6607C13.6708 19.6607 14.5111 19.8093 15.3532 20.2304C16.1954 20.6515 16.8184 21.2345 17.2469 21.8058L7.64688 29.0058ZM12.9567 31.6607C13.6231 31.6607 14.292 31.5593 14.9283 31.3635C15.4804 31.1936 16.576 30.7816 17.5817 29.7759L9.09639 21.2906C10.0171 20.3699 10.9852 20.0216 11.3992 19.8942C11.8975 19.7409 12.4177 19.6607 12.9567 19.6607V31.6607ZM17.072 30.2306L29.9021 20.0345L22.4361 10.6399L9.60606 20.8359L17.072 30.2306ZM30.0102 19.9465C31.3435 18.8354 32.1459 17.2831 32.3534 15.6749C32.5716 13.9838 32.1507 11.8564 30.4967 10.2024L22.0114 18.6877C20.6124 17.2886 20.2764 15.501 20.4521 14.1392C20.6171 12.8602 21.2496 11.6266 22.328 10.7279L30.0102 19.9465ZM31.1365 10.9576C28.7872 7.6686 24.5634 7.5145 21.8745 9.43517L28.8493 19.2C27.8483 19.915 26.5041 20.3318 25.0469 20.1375C23.5474 19.9376 22.2215 19.1222 21.3717 17.9325L31.1365 10.9576Z" fill="#0AC2B7" mask="url(#path-1-inside-1_1_740)"/>
</g>
<g id="Vector_2">
<mask id="path-3-inside-2_1_740" fill="white">
<path d="M15.9724 18.863C16.1423 18.863 16.3123 18.863 16.4822 18.8205C18.224 18.5656 19.4561 16.9088 19.1587 15.1245C19.0312 14.2748 18.5639 13.5101 17.8842 13.0003C17.2044 12.4905 16.3548 12.2781 15.5051 12.4055C14.6554 12.533 13.8907 13.0003 13.3809 13.68C12.8711 14.3598 12.6587 15.2094 12.7861 16.0591C13.041 17.716 14.443 18.863 15.9724 18.863ZM15.675 13.7225C15.76 13.7225 15.8874 13.68 15.9724 13.68C16.907 13.68 17.7567 14.3598 17.8842 15.3369C18.0541 16.399 17.3319 17.3761 16.2698 17.546C15.2077 17.716 14.2306 16.9938 14.0606 15.9317C13.8907 14.8696 14.6554 13.8924 15.675 13.7225Z"/>
</mask>
<path d="M15.9724 18.863C16.1423 18.863 16.3123 18.863 16.4822 18.8205C18.224 18.5656 19.4561 16.9088 19.1587 15.1245C19.0312 14.2748 18.5639 13.5101 17.8842 13.0003C17.2044 12.4905 16.3548 12.2781 15.5051 12.4055C14.6554 12.533 13.8907 13.0003 13.3809 13.68C12.8711 14.3598 12.6587 15.2094 12.7861 16.0591C13.041 17.716 14.443 18.863 15.9724 18.863ZM15.675 13.7225C15.76 13.7225 15.8874 13.68 15.9724 13.68C16.907 13.68 17.7567 14.3598 17.8842 15.3369C18.0541 16.399 17.3319 17.3761 16.2698 17.546C15.2077 17.716 14.2306 16.9938 14.0606 15.9317C13.8907 14.8696 14.6554 13.8924 15.675 13.7225Z" fill="#50AEAE"/>
<path d="M16.4822 18.8205L15.6134 12.8838L15.3173 12.9271L15.027 12.9997L16.4822 18.8205ZM19.1587 15.1245L13.2251 16.0145L13.2323 16.0628L13.2403 16.1109L19.1587 15.1245ZM12.7861 16.0591L6.85251 16.9492L6.85419 16.9603L6.8559 16.9715L12.7861 16.0591ZM15.675 13.7225V7.72251H15.1784L14.6886 7.80415L15.675 13.7225ZM17.8842 15.3369L11.9346 16.1129L11.9458 16.1991L11.9595 16.2848L17.8842 15.3369ZM15.9724 24.863C16.0309 24.863 16.9367 24.8916 17.9374 24.6414L15.027 12.9997C15.3972 12.9071 15.6941 12.8793 15.853 12.8694C15.9861 12.8611 16.0884 12.863 15.9724 12.863V24.863ZM17.351 24.7573C22.4119 24.0167 25.9278 19.2427 25.077 14.1381L13.2403 16.1109C12.9843 14.5748 14.0362 13.1146 15.6134 12.8838L17.351 24.7573ZM25.0923 14.2344C24.7252 11.7873 23.3941 9.63275 21.4842 8.20029L14.2842 17.8003C13.7337 17.3874 13.3372 16.7623 13.2251 16.0145L25.0923 14.2344ZM21.4842 8.20029C19.5037 6.71491 17.0328 6.10924 14.615 6.4719L16.3951 18.3391C15.6767 18.4469 14.9052 18.2661 14.2842 17.8003L21.4842 8.20029ZM14.615 6.4719C12.1679 6.83897 10.0134 8.17008 8.5809 10.08L18.1809 17.28C17.7681 17.8305 17.1429 18.227 16.3951 18.3391L14.615 6.4719ZM8.5809 10.08C7.09552 12.0605 6.48985 14.5314 6.85251 16.9492L18.7197 15.1691C18.8275 15.8875 18.6467 16.659 18.1809 17.28L8.5809 10.08ZM6.8559 16.9715C7.55816 21.5362 11.4622 24.863 15.9724 24.863V12.863C17.4237 12.863 18.5239 13.8958 18.7164 15.1468L6.8559 16.9715ZM15.675 19.7225C15.9285 19.7225 16.1421 19.707 16.2974 19.6917C16.455 19.6762 16.5871 19.6573 16.6812 19.6424C16.776 19.6275 16.8543 19.6131 16.9033 19.6037C16.9501 19.5949 16.9923 19.5864 17.0004 19.5847C17.0188 19.5811 17.0032 19.5842 16.9826 19.5881C16.9599 19.5925 16.9074 19.6022 16.8378 19.6132C16.769 19.6241 16.6614 19.6397 16.5274 19.6529C16.3957 19.6659 16.2046 19.68 15.9724 19.68V7.68003C15.719 7.68003 15.5053 7.69549 15.35 7.7108C15.1924 7.72634 15.0603 7.74524 14.9662 7.76009C14.8714 7.77506 14.7931 7.78948 14.7441 7.79879C14.6973 7.80767 14.6552 7.81615 14.647 7.81779C14.6286 7.82146 14.6442 7.81829 14.6648 7.81439C14.6876 7.81006 14.74 7.80029 14.8096 7.7893C14.8784 7.77843 14.986 7.76285 15.12 7.74964C15.2517 7.73665 15.4428 7.72251 15.675 7.72251V19.7225ZM15.9724 19.68C14.0901 19.68 12.2218 18.3153 11.9346 16.1129L23.8338 14.5609C23.2916 10.4043 19.724 7.68003 15.9724 7.68003V19.68ZM11.9595 16.2848C11.5952 14.0079 13.1791 11.9642 15.3218 11.6214L17.2177 23.4707C21.4846 22.788 24.513 18.79 23.8088 14.3889L11.9595 16.2848ZM15.3218 11.6214C17.5987 11.2571 19.6425 12.841 19.9853 14.9837L8.136 16.8796C8.8187 21.1465 12.8167 24.1749 17.2177 23.4707L15.3218 11.6214ZM19.9853 14.9837C20.368 17.3759 18.6949 19.302 16.6614 19.6409L14.6886 7.80415C10.6159 8.48293 7.41338 12.3633 8.136 16.8796L19.9853 14.9837Z" fill="#0AC2B7" mask="url(#path-3-inside-2_1_740)"/>
</g>
<g id="Vector_3">
<mask id="path-5-inside-3_1_740" fill="white">
<path d="M22.7707 20.9875C20.9864 20.9875 19.542 22.432 19.542 24.2163C19.542 26.0006 20.9864 27.4451 22.7707 27.4451C24.5551 27.4451 25.9995 26.0006 25.9995 24.2163C25.957 22.432 24.5126 20.9875 22.7707 20.9875ZM22.7707 26.1281C21.7087 26.1281 20.8165 25.2359 20.8165 24.1738C20.8165 23.1117 21.7087 22.2196 22.7707 22.2196C23.8328 22.2196 24.725 23.1117 24.725 24.1738C24.6825 25.2784 23.8328 26.1281 22.7707 26.1281Z"/>
</mask>
<path d="M22.7707 20.9875C20.9864 20.9875 19.542 22.432 19.542 24.2163C19.542 26.0006 20.9864 27.4451 22.7707 27.4451C24.5551 27.4451 25.9995 26.0006 25.9995 24.2163C25.957 22.432 24.5126 20.9875 22.7707 20.9875ZM22.7707 26.1281C21.7087 26.1281 20.8165 25.2359 20.8165 24.1738C20.8165 23.1117 21.7087 22.2196 22.7707 22.2196C23.8328 22.2196 24.725 23.1117 24.725 24.1738C24.6825 25.2784 23.8328 26.1281 22.7707 26.1281Z" fill="#50AEAE"/>
<path d="M25.9995 24.2163H31.9995V24.1449L31.9978 24.0735L25.9995 24.2163ZM24.725 24.1738L30.7206 24.4044L30.725 24.2892V24.1738H24.725ZM22.7707 14.9875C17.6727 14.9875 13.542 19.1183 13.542 24.2163H25.542C25.542 25.7457 24.3001 26.9875 22.7707 26.9875V14.9875ZM13.542 24.2163C13.542 29.3143 17.6727 33.4451 22.7707 33.4451V21.4451C24.3001 21.4451 25.542 22.6869 25.542 24.2163H13.542ZM22.7707 33.4451C27.8688 33.4451 31.9995 29.3143 31.9995 24.2163H19.9995C19.9995 22.6869 21.2414 21.4451 22.7707 21.4451V33.4451ZM31.9978 24.0735C31.881 19.1659 27.9029 14.9875 22.7707 14.9875V26.9875C21.1222 26.9875 20.0331 25.6981 20.0012 24.3591L31.9978 24.0735ZM22.7707 20.1281C25.0224 20.1281 26.8165 21.9222 26.8165 24.1738H14.8165C14.8165 28.5496 18.3949 32.1281 22.7707 32.1281V20.1281ZM26.8165 24.1738C26.8165 26.4254 25.0224 28.2196 22.7707 28.2196V16.2196C18.3949 16.2196 14.8165 19.798 14.8165 24.1738H26.8165ZM22.7707 28.2196C20.5191 28.2196 18.725 26.4254 18.725 24.1738H30.725C30.725 19.798 27.1466 16.2196 22.7707 16.2196V28.2196ZM18.7294 23.9432C18.8026 22.0416 20.3976 20.1281 22.7707 20.1281V32.1281C27.2681 32.1281 30.5625 28.5152 30.7206 24.4044L18.7294 23.9432Z" fill="#0AC2B7" mask="url(#path-5-inside-3_1_740)"/>
</g>
<g id="Vector_4">
<mask id="path-7-inside-4_1_740" fill="white">
<path d="M38.6601 19.5C38.6601 19.4575 38.7026 19.3726 38.7026 19.3301C38.7026 17.5033 36.7908 16.5686 35.134 15.7614C33.9444 15.1667 32.6699 14.5294 32.3301 13.7647C31.9902 12.9575 32.4575 11.6405 32.9248 10.4085C33.5621 8.66667 34.1993 6.88235 33.0098 5.69281C31.8203 4.50327 30.1209 4.9281 28.4216 5.31046C27.232 5.56536 26 5.86275 25.1928 5.52288C24.3856 5.18301 23.7059 4.12092 23.0686 3.10131C22.134 1.65686 21.1144 0 19.3301 0C17.5458 0 16.5261 1.65686 15.634 3.14379C14.9967 4.20588 14.3595 5.26797 13.5523 5.60784C12.7451 5.94771 11.4706 5.65033 10.281 5.35294C8.5817 4.92811 6.83987 4.50327 5.69281 5.65033C4.50327 6.83987 5.09804 8.62418 5.65033 10.366C6.07516 11.6405 6.45752 12.915 6.11765 13.7647C5.77778 14.5719 4.58824 15.1667 3.44118 15.7614C1.8268 16.6111 0 17.5458 0 19.3301C0 19.3726 -4.11486e-08 19.4575 0.0424836 19.5C0.0424836 19.5425 0 19.6275 0 19.6699C0 21.4543 1.8268 22.4314 3.44118 23.2386C4.58824 23.8333 5.77778 24.4281 6.11765 25.2353C6.45752 26.0425 6.03268 27.3595 5.65033 28.634C5.09804 30.3758 4.50327 32.1601 5.69281 33.3497C6.88235 34.5392 8.62418 34.0719 10.281 33.6471C11.4706 33.3497 12.7451 33.0523 13.5523 33.3922C14.3595 33.732 14.9967 34.7941 15.634 35.8562C16.5261 37.3431 17.5458 39 19.3301 39C21.1144 39 22.1765 37.3431 23.0686 35.8987C23.7059 34.8791 24.3856 33.817 25.1928 33.4771C26.0425 33.1373 27.232 33.3922 28.4216 33.6895C30.0784 34.0719 31.8203 34.4967 33.0098 33.3072C34.1993 32.1176 33.5621 30.3333 32.9248 28.5915C32.4575 27.317 31.9902 26.0425 32.3301 25.2353C32.6699 24.4281 33.902 23.8333 35.134 23.2386C36.7908 22.3889 38.7026 21.4543 38.7026 19.6699C38.7026 19.585 38.6601 19.5425 38.6601 19.5ZM34.5392 22.0915C33.1373 22.8137 31.6503 23.5359 31.1405 24.768C30.5882 26.0425 31.183 27.5719 31.6928 29.0588C32.2026 30.4608 32.7124 31.8203 32.0752 32.415C31.3954 33.0948 30.0784 32.7974 28.6765 32.4575C27.2745 32.1176 25.8725 31.8203 24.6405 32.3301C23.451 32.8399 22.6863 34.0294 21.9641 35.219C21.1569 36.4935 20.3922 37.7255 19.2876 37.7255C18.2255 37.7255 17.4608 36.4935 16.6536 35.1765C15.9314 33.9444 15.1667 32.7124 13.9771 32.2026C12.7451 31.6928 11.3007 32.0327 9.89869 32.415C8.49673 32.7549 7.17974 33.0948 6.5 32.4575C5.86275 31.8203 6.28758 30.4608 6.7549 29.0588C7.22222 27.5719 7.73203 26.0425 7.17974 24.8105C6.66993 23.5784 5.26797 22.8562 3.9085 22.1765C2.50654 21.4542 1.18954 20.7745 1.18954 19.7124C1.18954 19.6699 1.18954 19.585 1.14706 19.5425C1.14706 19.5 1.18954 19.415 1.18954 19.3725C1.18954 18.3529 2.50654 17.6732 3.9085 16.9085C5.26797 16.2288 6.66993 15.5065 7.17974 14.2745C7.68954 13 7.22222 11.4706 6.7549 10.0261C6.28758 8.5817 5.86275 7.22222 6.5 6.62745C7.17974 5.94771 8.49673 6.28758 9.89869 6.66994C11.3007 7.0098 12.7451 7.39216 13.9771 6.88235C15.1667 6.37255 15.9314 5.14052 16.6536 3.9085C17.4608 2.5915 18.183 1.35948 19.2876 1.35948C20.3922 1.35948 21.1569 2.5915 21.9641 3.86601C22.7288 5.05556 23.4935 6.2451 24.6405 6.7549C25.8725 7.26471 27.2745 6.92484 28.6765 6.62745C30.0784 6.28758 31.3954 5.9902 32.0752 6.66994C32.7124 7.26471 32.2026 8.62418 31.6928 10.0261C31.1405 11.5131 30.5882 13.0425 31.1405 14.317C31.6503 15.549 33.1373 16.2712 34.5392 16.9935C36.0261 17.7157 37.3856 18.4379 37.3856 19.4575C37.3856 19.5 37.3856 19.585 37.4281 19.6275C37.4281 19.6699 37.3856 19.7549 37.3856 19.7974C37.4281 20.6471 36.0261 21.3693 34.5392 22.0915Z"/>
</mask>
<path d="M38.6601 19.5C38.6601 19.4575 38.7026 19.3726 38.7026 19.3301C38.7026 17.5033 36.7908 16.5686 35.134 15.7614C33.9444 15.1667 32.6699 14.5294 32.3301 13.7647C31.9902 12.9575 32.4575 11.6405 32.9248 10.4085C33.5621 8.66667 34.1993 6.88235 33.0098 5.69281C31.8203 4.50327 30.1209 4.9281 28.4216 5.31046C27.232 5.56536 26 5.86275 25.1928 5.52288C24.3856 5.18301 23.7059 4.12092 23.0686 3.10131C22.134 1.65686 21.1144 0 19.3301 0C17.5458 0 16.5261 1.65686 15.634 3.14379C14.9967 4.20588 14.3595 5.26797 13.5523 5.60784C12.7451 5.94771 11.4706 5.65033 10.281 5.35294C8.5817 4.92811 6.83987 4.50327 5.69281 5.65033C4.50327 6.83987 5.09804 8.62418 5.65033 10.366C6.07516 11.6405 6.45752 12.915 6.11765 13.7647C5.77778 14.5719 4.58824 15.1667 3.44118 15.7614C1.8268 16.6111 0 17.5458 0 19.3301C0 19.3726 -4.11486e-08 19.4575 0.0424836 19.5C0.0424836 19.5425 0 19.6275 0 19.6699C0 21.4543 1.8268 22.4314 3.44118 23.2386C4.58824 23.8333 5.77778 24.4281 6.11765 25.2353C6.45752 26.0425 6.03268 27.3595 5.65033 28.634C5.09804 30.3758 4.50327 32.1601 5.69281 33.3497C6.88235 34.5392 8.62418 34.0719 10.281 33.6471C11.4706 33.3497 12.7451 33.0523 13.5523 33.3922C14.3595 33.732 14.9967 34.7941 15.634 35.8562C16.5261 37.3431 17.5458 39 19.3301 39C21.1144 39 22.1765 37.3431 23.0686 35.8987C23.7059 34.8791 24.3856 33.817 25.1928 33.4771C26.0425 33.1373 27.232 33.3922 28.4216 33.6895C30.0784 34.0719 31.8203 34.4967 33.0098 33.3072C34.1993 32.1176 33.5621 30.3333 32.9248 28.5915C32.4575 27.317 31.9902 26.0425 32.3301 25.2353C32.6699 24.4281 33.902 23.8333 35.134 23.2386C36.7908 22.3889 38.7026 21.4543 38.7026 19.6699C38.7026 19.585 38.6601 19.5425 38.6601 19.5ZM34.5392 22.0915C33.1373 22.8137 31.6503 23.5359 31.1405 24.768C30.5882 26.0425 31.183 27.5719 31.6928 29.0588C32.2026 30.4608 32.7124 31.8203 32.0752 32.415C31.3954 33.0948 30.0784 32.7974 28.6765 32.4575C27.2745 32.1176 25.8725 31.8203 24.6405 32.3301C23.451 32.8399 22.6863 34.0294 21.9641 35.219C21.1569 36.4935 20.3922 37.7255 19.2876 37.7255C18.2255 37.7255 17.4608 36.4935 16.6536 35.1765C15.9314 33.9444 15.1667 32.7124 13.9771 32.2026C12.7451 31.6928 11.3007 32.0327 9.89869 32.415C8.49673 32.7549 7.17974 33.0948 6.5 32.4575C5.86275 31.8203 6.28758 30.4608 6.7549 29.0588C7.22222 27.5719 7.73203 26.0425 7.17974 24.8105C6.66993 23.5784 5.26797 22.8562 3.9085 22.1765C2.50654 21.4542 1.18954 20.7745 1.18954 19.7124C1.18954 19.6699 1.18954 19.585 1.14706 19.5425C1.14706 19.5 1.18954 19.415 1.18954 19.3725C1.18954 18.3529 2.50654 17.6732 3.9085 16.9085C5.26797 16.2288 6.66993 15.5065 7.17974 14.2745C7.68954 13 7.22222 11.4706 6.7549 10.0261C6.28758 8.5817 5.86275 7.22222 6.5 6.62745C7.17974 5.94771 8.49673 6.28758 9.89869 6.66994C11.3007 7.0098 12.7451 7.39216 13.9771 6.88235C15.1667 6.37255 15.9314 5.14052 16.6536 3.9085C17.4608 2.5915 18.183 1.35948 19.2876 1.35948C20.3922 1.35948 21.1569 2.5915 21.9641 3.86601C22.7288 5.05556 23.4935 6.2451 24.6405 6.7549C25.8725 7.26471 27.2745 6.92484 28.6765 6.62745C30.0784 6.28758 31.3954 5.9902 32.0752 6.66994C32.7124 7.26471 32.2026 8.62418 31.6928 10.0261C31.1405 11.5131 30.5882 13.0425 31.1405 14.317C31.6503 15.549 33.1373 16.2712 34.5392 16.9935C36.0261 17.7157 37.3856 18.4379 37.3856 19.4575C37.3856 19.5 37.3856 19.585 37.4281 19.6275C37.4281 19.6699 37.3856 19.7549 37.3856 19.7974C37.4281 20.6471 36.0261 21.3693 34.5392 22.0915Z" fill="black"/>
<path d="M35.134 15.7614L32.4507 21.128L32.4784 21.1418L32.5062 21.1554L35.134 15.7614ZM32.3301 13.7647L26.8003 16.093L26.8232 16.1475L26.8472 16.2015L32.3301 13.7647ZM32.9248 10.4085L38.5348 12.5364L38.5474 12.5033L38.5596 12.47L32.9248 10.4085ZM28.4216 5.31046L29.6787 11.1773L29.7087 11.1708L29.7386 11.1641L28.4216 5.31046ZM23.0686 3.10131L28.1566 -0.0786861L28.1316 -0.118642L28.106 -0.1582L23.0686 3.10131ZM15.634 3.14379L20.7789 6.23077L15.634 3.14379ZM5.65033 10.366L-0.0690565 12.1795L-0.055723 12.2215L-0.0417725 12.2634L5.65033 10.366ZM6.11765 13.7647L11.6475 16.093L11.6684 16.0432L11.6885 15.993L6.11765 13.7647ZM3.44118 15.7614L0.679274 10.4349L0.66296 10.4434L0.646698 10.4519L3.44118 15.7614ZM0.0424836 19.5H6.04248V17.0147L4.28512 15.2574L0.0424836 19.5ZM3.44118 23.2386L6.20308 17.912L6.16392 17.8917L6.12446 17.872L3.44118 23.2386ZM5.65033 28.634L11.3697 30.4475L11.3838 30.4029L11.3973 30.3581L5.65033 28.634ZM10.281 33.6471L8.82583 27.8262L8.8083 27.8306L8.79079 27.8351L10.281 33.6471ZM15.634 35.8562L20.7789 32.7692L15.634 35.8562ZM23.0686 35.8987L17.9806 32.7187L17.9722 32.7322L17.9638 32.7457L23.0686 35.8987ZM25.1928 33.4771L22.9645 27.9063L22.9143 27.9263L22.8645 27.9473L25.1928 33.4771ZM28.4216 33.6895L26.9664 39.5104L27.0193 39.5236L27.0724 39.5359L28.4216 33.6895ZM32.9248 28.5915L38.5596 26.53L38.5581 26.526L32.9248 28.5915ZM35.134 23.2386L37.7425 28.6419L37.8076 28.6104L37.8719 28.5775L35.134 23.2386ZM38.7026 19.6699H32.7026H38.7026ZM34.5392 22.0915L31.9178 16.6945L31.8543 16.7253L31.7915 16.7577L34.5392 22.0915ZM31.1405 24.768L36.6459 27.1536L36.6656 27.108L36.6846 27.0621L31.1405 24.768ZM31.6928 29.0588L26.0171 31.0048L26.0351 31.0572L26.0541 31.1093L31.6928 29.0588ZM32.0752 32.415L27.9813 28.0287L27.9057 28.0993L27.8325 28.1724L32.0752 32.415ZM24.6405 32.3301L22.3464 26.786L22.3116 26.8004L22.277 26.8152L24.6405 32.3301ZM21.9641 35.219L27.033 38.4293L27.0633 38.3813L27.0928 38.3328L21.9641 35.219ZM16.6536 35.1765L11.4774 38.2108L11.5072 38.2616L11.538 38.3118L16.6536 35.1765ZM13.9771 32.2026L16.3406 26.6877L16.306 26.6729L16.2712 26.6585L13.9771 32.2026ZM9.89869 32.415L11.3123 38.2461L11.3951 38.226L11.4774 38.2036L9.89869 32.415ZM6.5 32.4575L2.25736 36.7002L2.32577 36.7686L2.39635 36.8347L6.5 32.4575ZM6.7549 29.0588L12.447 30.9562L12.4634 30.9071L12.4789 30.8578L6.7549 29.0588ZM7.17974 24.8105L1.63564 27.1046L1.669 27.1852L1.70468 27.2648L7.17974 24.8105ZM3.9085 22.1765L1.16076 27.5103L1.19289 27.5269L1.22522 27.543L3.9085 22.1765ZM1.14706 19.5425H-4.85294V22.0278L-3.09558 23.7851L1.14706 19.5425ZM3.9085 16.9085L1.22522 11.5419L1.12941 11.5898L1.03538 11.6411L3.9085 16.9085ZM7.17974 14.2745L12.7238 16.5686L12.7374 16.5358L12.7506 16.5029L7.17974 14.2745ZM6.5 6.62745L10.5939 11.0138L10.6695 10.9432L10.7426 10.8701L6.5 6.62745ZM9.89869 6.66994L8.31999 12.4585L8.40224 12.481L8.48509 12.501L9.89869 6.66994ZM13.9771 6.88235L16.2712 12.4265L16.306 12.4121L16.3406 12.3972L13.9771 6.88235ZM16.6536 3.9085L11.538 0.773125L11.5072 0.823355L11.4774 0.874181L16.6536 3.9085ZM21.9641 3.86601L16.8951 7.07633L16.906 7.09348L16.917 7.11056L21.9641 3.86601ZM24.6405 6.7549L22.2037 12.2378L22.2747 12.2693L22.3464 12.299L24.6405 6.7549ZM28.6765 6.62745L29.9215 12.4969L30.0061 12.4789L30.0901 12.4586L28.6765 6.62745ZM32.0752 6.66994L27.8325 10.9126L27.9057 10.9857L27.9813 11.0563L32.0752 6.66994ZM31.6928 10.0261L37.3174 12.1153L37.3245 12.096L37.3316 12.0766L31.6928 10.0261ZM31.1405 14.317L36.6846 12.0229L36.6656 11.977L36.6459 11.9313L31.1405 14.317ZM34.5392 16.9935L31.7915 22.3273L31.8543 22.3597L31.9178 22.3905L34.5392 16.9935ZM37.4281 19.6275H43.4281V17.1422L41.6707 15.3848L37.4281 19.6275ZM37.3856 19.7974H31.3856V19.9473L31.3931 20.097L37.3856 19.7974ZM44.6601 19.5C44.6601 19.7429 44.6452 19.9523 44.6279 20.1175C44.6104 20.2841 44.5881 20.4277 44.5676 20.5422C44.5469 20.6576 44.5254 20.757 44.5068 20.8367C44.4881 20.9168 44.4703 20.9856 44.4554 21.0402C44.4266 21.1455 44.4013 21.2262 44.3895 21.263C44.383 21.2834 44.3779 21.299 44.3755 21.3064C44.3733 21.3129 44.3716 21.3179 44.3735 21.3124C44.3743 21.3099 44.3786 21.297 44.3834 21.2826C44.3884 21.2672 44.3961 21.2438 44.4051 21.2155C44.4219 21.1631 44.4519 21.0672 44.4846 20.9473C44.5014 20.8853 44.5212 20.8094 44.5415 20.7224C44.5617 20.6358 44.5846 20.5296 44.6064 20.4078C44.6281 20.2868 44.6513 20.137 44.6694 19.9644C44.6874 19.7933 44.7026 19.5783 44.7026 19.3301H32.7026C32.7026 19.0872 32.7175 18.8778 32.7349 18.7126C32.7524 18.546 32.7746 18.4024 32.7952 18.2879C32.8159 18.1725 32.8373 18.0731 32.8559 17.9934C32.8746 17.9133 32.8925 17.8445 32.9074 17.7899C32.9361 17.6846 32.9615 17.6039 32.9732 17.5671C32.9797 17.5466 32.9849 17.531 32.9873 17.5237C32.9894 17.5172 32.9911 17.5122 32.9893 17.5177C32.9885 17.5201 32.9841 17.5331 32.9794 17.5475C32.9743 17.5628 32.9666 17.5863 32.9576 17.6145C32.9409 17.667 32.9109 17.7629 32.8782 17.8828C32.8613 17.9447 32.8416 18.0207 32.8213 18.1077C32.801 18.1943 32.7782 18.3005 32.7563 18.4223C32.7346 18.5433 32.7114 18.6931 32.6933 18.8656C32.6754 19.0368 32.6601 19.2518 32.6601 19.5H44.6601ZM44.7026 19.3301C44.7026 15.9752 42.8293 13.7442 41.3488 12.5277C40.0161 11.4326 38.4427 10.6992 37.7618 10.3675L32.5062 21.1554C32.9432 21.3683 33.2256 21.5077 33.4703 21.644C33.7115 21.7784 33.7683 21.8302 33.7304 21.7991C33.691 21.7667 33.4306 21.5485 33.1751 21.1036C32.8896 20.6064 32.7026 19.9837 32.7026 19.3301H44.7026ZM37.8173 10.3949C37.5078 10.2401 37.2732 10.1225 37.0591 10.0086C36.8461 9.89535 36.7271 9.82435 36.6686 9.78656C36.5982 9.74112 36.7002 9.79788 36.8768 9.96567C36.972 10.0561 37.1167 10.205 37.2775 10.4167C37.4386 10.6288 37.6368 10.9317 37.8129 11.3279L26.8472 16.2015C27.7797 18.2996 29.5166 19.4526 30.1582 19.867C30.9986 20.4098 31.9305 20.8679 32.4507 21.128L37.8173 10.3949ZM37.8599 11.4364C38.1874 12.2141 38.2172 12.8567 38.2134 13.1507C38.2095 13.4509 38.1669 13.6135 38.1756 13.5756C38.1812 13.5506 38.2061 13.4532 38.2729 13.2548C38.3391 13.0584 38.4223 12.8331 38.5348 12.5364L27.3149 8.28057C27.0942 8.86222 26.7121 9.86818 26.474 10.9162C26.2793 11.7728 25.8677 13.8783 26.8003 16.093L37.8599 11.4364ZM38.5596 12.47C38.8193 11.7602 39.4305 10.1727 39.6157 8.50613C39.8293 6.58366 39.5639 3.76162 37.2524 1.45017L28.7672 9.93545C28.2993 9.4676 27.9623 8.86919 27.795 8.24904C27.6439 7.68879 27.6774 7.28592 27.6891 7.18096C27.7 7.08218 27.7069 7.11777 27.6329 7.36137C27.5583 7.60703 27.4564 7.89239 27.2901 8.34701L38.5596 12.47ZM37.2524 1.45017C35.1917 -0.610607 32.7199 -1.10021 30.8663 -1.08769C29.2892 -1.07703 27.722 -0.682135 27.1045 -0.543201L29.7386 11.1641C30.2242 11.0549 30.4937 10.993 30.7507 10.9468C30.992 10.9034 31.0296 10.9115 30.9474 10.912C30.8531 10.9127 30.5244 10.9046 30.0784 10.7512C29.5942 10.5846 29.1333 10.3016 28.7672 9.93545L37.2524 1.45017ZM27.1644 -0.556356C27.0846 -0.539249 27.0049 -0.522048 26.932 -0.506302C26.8572 -0.490159 26.7882 -0.47528 26.7206 -0.46082C26.5848 -0.431804 26.4695 -0.407743 26.3648 -0.387035C26.1466 -0.343891 26.0332 -0.327278 25.9825 -0.32149C25.9253 -0.314954 26.0358 -0.332861 26.2558 -0.318704C26.4739 -0.304672 26.9422 -0.250693 27.5212 -0.00693591L22.8645 11.0527C24.7236 11.8355 26.5007 11.6974 27.3451 11.6009C28.2691 11.4953 29.2369 11.272 29.6787 11.1773L27.1644 -0.556356ZM27.5212 -0.00693591C28.0597 0.219806 28.4017 0.490044 28.5542 0.623092C28.7094 0.758483 28.7711 0.842232 28.7411 0.804938C28.7152 0.772751 28.6528 0.690428 28.5441 0.527676C28.4345 0.363818 28.3159 0.176221 28.1566 -0.0786861L17.9806 6.2813C18.273 6.74902 18.783 7.57123 19.3929 8.32905C19.9447 9.01463 21.0782 10.3006 22.8645 11.0527L27.5212 -0.00693591ZM28.106 -0.1582C27.7572 -0.697349 26.9028 -2.09147 25.7606 -3.23365C24.4699 -4.52437 22.3322 -6 19.3301 -6V6C18.8021 6 18.2974 5.86742 17.884 5.66375C17.507 5.47805 17.3083 5.28459 17.2753 5.25163C17.2473 5.22362 17.3008 5.2728 17.4514 5.4845C17.6111 5.70915 17.7643 5.94828 18.0312 6.36082L28.106 -0.1582ZM19.3301 -6C16.3244 -6 14.1747 -4.52139 12.8671 -3.19029C11.6959 -1.99797 10.872 -0.581393 10.489 0.0568169L20.7789 6.23077C21.0079 5.84912 21.1551 5.60908 21.2915 5.4095C21.4248 5.21426 21.4682 5.17778 21.4278 5.21889C21.3827 5.26478 21.1751 5.46711 20.7887 5.65855C20.3668 5.86756 19.8576 6 19.3301 6V-6ZM10.489 0.0568168C10.322 0.335228 10.2043 0.530631 10.0931 0.705258C9.98375 0.876831 9.92546 0.956817 9.90538 0.982856C9.8816 1.01369 9.95446 0.912405 10.1272 0.757786C10.3006 0.602619 10.6627 0.314351 11.2239 0.0780317L15.8806 11.1377C17.7229 10.362 18.86 9.02156 19.4083 8.31045C20.0027 7.53963 20.5048 6.68768 20.7789 6.23077L10.489 0.0568168ZM11.2239 0.0780317C11.8158 -0.171155 12.2914 -0.222834 12.5045 -0.235764C12.7238 -0.249074 12.8338 -0.230751 12.7837 -0.236837C12.7418 -0.241929 12.6369 -0.257945 12.4421 -0.299837C12.2473 -0.341738 12.0273 -0.395156 11.7363 -0.467913L8.82583 11.1738C9.38434 11.3134 10.3453 11.5551 11.3364 11.6756C12.2053 11.7811 14.006 11.927 15.8806 11.1377L11.2239 0.0780317ZM11.7363 -0.467913C11.0351 -0.643195 9.49391 -1.05453 7.9006 -1.08661C6.09996 -1.12286 3.55558 -0.697721 1.45017 1.40769L9.93545 9.89297C9.51969 10.3087 9.01549 10.6008 8.51966 10.763C8.06621 10.9113 7.7399 10.9126 7.65904 10.911C7.58485 10.9095 7.62956 10.9031 7.86406 10.9487C8.1038 10.9953 8.38068 11.0625 8.82583 11.1738L11.7363 -0.467913ZM1.45017 1.40769C-0.815413 3.67327 -1.11987 6.4284 -0.960076 8.30904C-0.822105 9.93284 -0.277166 11.5231 -0.0690565 12.1795L11.3697 8.55255C11.2166 8.06953 11.1251 7.78206 11.0542 7.51621C10.9857 7.25911 10.9899 7.21139 10.9968 7.29309C11.0044 7.3816 11.0277 7.75831 10.8778 8.28538C10.7119 8.8686 10.3884 9.44007 9.93545 9.89297L1.45017 1.40769ZM-0.0417725 12.2634C0.0581087 12.563 0.130887 12.7897 0.18681 12.983C0.243139 13.1777 0.263002 13.2731 0.267532 13.298C0.273478 13.3307 0.243694 13.1908 0.249015 12.9314C0.254365 12.6706 0.297611 12.1593 0.546787 11.5364L11.6885 15.993C12.4897 13.99 12.2468 12.1018 12.074 11.1514C11.8823 10.0972 11.5494 9.08944 11.3424 8.46865L-0.0417725 12.2634ZM0.587835 11.4364C0.882825 10.7358 1.26589 10.3013 1.45893 10.1068C1.65289 9.9114 1.78111 9.83217 1.74128 9.85887C1.70968 9.88005 1.6168 9.93841 1.41798 10.0471C1.21261 10.1593 0.998228 10.2695 0.679274 10.4349L6.20308 21.088C6.65784 20.8522 7.59485 20.3817 8.42294 19.8266C9.14177 19.3447 10.7703 18.1764 11.6475 16.093L0.587835 11.4364ZM0.646698 10.4519C0.0179201 10.7829 -1.50957 11.5455 -2.78349 12.6345C-4.21281 13.8564 -6 16.0584 -6 19.3301H6C6 19.9685 5.82176 20.5765 5.54907 21.0648C5.30422 21.5032 5.05321 21.7224 5.01388 21.756C4.97716 21.7874 5.03203 21.7354 5.27132 21.5942C5.51788 21.4487 5.79253 21.3042 6.23566 21.0709L0.646698 10.4519ZM-6 19.3301C-6 19.3351 -6.00075 19.4738 -5.99315 19.641C-5.98548 19.8097 -5.96698 20.0779 -5.91305 20.4014C-5.83837 20.8495 -5.5515 22.3913 -4.20016 23.7426L4.28512 15.2574C4.97801 15.9502 5.36085 16.6755 5.5712 17.1897C5.78175 17.7044 5.87676 18.1472 5.92367 18.4286C6.01071 18.9508 6 19.3859 6 19.3301H-6ZM-5.95752 19.5C-5.95752 19.2571 -5.94258 19.0477 -5.92525 18.8825C-5.90778 18.7159 -5.88552 18.5723 -5.86497 18.4578C-5.84427 18.3424 -5.82283 18.243 -5.80423 18.1633C-5.78552 18.0832 -5.76763 18.0144 -5.75274 17.9598C-5.72402 17.8545 -5.69867 17.7738 -5.68692 17.737C-5.68039 17.7166 -5.67527 17.701 -5.67284 17.6936C-5.67069 17.6871 -5.66902 17.6821 -5.67086 17.6876C-5.67168 17.6901 -5.676 17.703 -5.68076 17.7174C-5.68581 17.7328 -5.6935 17.7562 -5.70252 17.7845C-5.71925 17.8369 -5.74924 17.9328 -5.78195 18.0527C-5.79883 18.1147 -5.81854 18.1906 -5.83887 18.2776C-5.85909 18.3642 -5.88194 18.4704 -5.9038 18.5922C-5.92552 18.7132 -5.94868 18.863 -5.96678 19.0356C-5.98474 19.2067 -6 19.4217 -6 19.6699H6C6 19.9128 5.98507 20.1222 5.96774 20.2874C5.95026 20.4541 5.92801 20.5977 5.90745 20.7122C5.88675 20.8275 5.86531 20.927 5.84671 21.0066C5.828 21.0867 5.81012 21.1555 5.79522 21.2101C5.7665 21.3154 5.74115 21.3961 5.7294 21.4329C5.72287 21.4534 5.71776 21.469 5.71532 21.4763C5.71318 21.4828 5.71151 21.4878 5.71335 21.4823C5.71416 21.4799 5.71849 21.4669 5.72325 21.4525C5.72829 21.4372 5.73598 21.4137 5.745 21.3855C5.76173 21.333 5.79173 21.2371 5.82443 21.1172C5.84132 21.0553 5.86102 20.9793 5.88135 20.8923C5.90157 20.8057 5.92442 20.6996 5.94629 20.5777C5.968 20.4568 5.99117 20.3069 6.00927 20.1344C6.02722 19.9632 6.04248 19.7482 6.04248 19.5H-5.95752ZM-6 19.6699C-6 22.9187 -4.23677 25.1274 -2.80461 26.3633C-1.49656 27.492 0.0261701 28.2393 0.757895 28.6051L6.12446 17.872C5.73094 17.6752 5.46669 17.538 5.25209 17.4124C5.03692 17.2866 4.99162 17.2406 5.03501 17.2781C5.07991 17.3168 5.32353 17.5334 5.56069 17.9621C5.8235 18.4371 6 19.0346 6 19.6699H-6ZM0.679274 28.5651C0.998228 28.7305 1.21261 28.8407 1.41798 28.9529C1.6168 29.0616 1.70968 29.12 1.74128 29.1411C1.78111 29.1678 1.65289 29.0886 1.45893 28.8932C1.26589 28.6987 0.882825 28.2642 0.587835 27.5636L11.6475 22.907C10.7703 20.8236 9.14177 19.6553 8.42294 19.1734C7.59485 18.6183 6.65784 18.1478 6.20308 17.912L0.679274 28.5651ZM0.587835 27.5636C0.279015 26.8302 0.243956 26.2318 0.241959 25.9742C0.23991 25.7098 0.272126 25.5768 0.259399 25.6441C0.248808 25.7 0.220701 25.8251 0.154661 26.061C0.0858665 26.3067 0.0120348 26.5477 -0.0966304 26.9099L11.3973 30.3581C11.5456 29.8636 11.8658 28.8496 12.0502 27.8747C12.2043 27.0606 12.5408 25.0285 11.6475 22.907L0.587835 27.5636ZM-0.0690565 26.8205C-0.277166 27.4769 -0.822105 29.0672 -0.960076 30.691C-1.11987 32.5716 -0.815413 35.3267 1.45017 37.5923L9.93545 29.107C10.3884 29.5599 10.7119 30.1314 10.8778 30.7146C11.0277 31.2417 11.0044 31.6184 10.9968 31.7069C10.9899 31.7886 10.9857 31.7409 11.0542 31.4838C11.1251 31.2179 11.2166 30.9305 11.3697 30.4475L-0.0690565 26.8205ZM1.45017 37.5923C3.56666 39.7088 6.11876 40.1514 7.9727 40.1016C9.57771 40.0585 11.1376 39.6215 11.7713 39.459L8.79079 27.8351C8.33343 27.9524 8.06949 28.0198 7.82861 28.0691C7.5983 28.1163 7.56434 28.1082 7.65066 28.1059C7.74643 28.1033 8.08485 28.1046 8.54724 28.2561C9.05121 28.4213 9.54182 28.7134 9.93545 29.107L1.45017 37.5923ZM11.7363 39.4679C12.0273 39.3952 12.2473 39.3417 12.4421 39.2998C12.6369 39.2579 12.7418 39.2419 12.7837 39.2368C12.8338 39.2308 12.7238 39.2491 12.5045 39.2358C12.2914 39.2228 11.8158 39.1712 11.2239 38.922L15.8806 27.8623C14.006 27.073 12.2053 27.2189 11.3364 27.3244C10.3453 27.4449 9.38434 27.6866 8.82583 27.8262L11.7363 39.4679ZM11.2239 38.922C10.6627 38.6856 10.3006 38.3974 10.1272 38.2422C9.95446 38.0876 9.8816 37.9863 9.90538 38.0171C9.92546 38.0432 9.98375 38.1232 10.0931 38.2947C10.2043 38.4694 10.322 38.6648 10.489 38.9432L20.7789 32.7692C20.5048 32.3123 20.0027 31.4604 19.4083 30.6896C18.86 29.9784 17.7229 28.638 15.8806 27.8623L11.2239 38.922ZM10.489 38.9432C10.872 39.5814 11.6959 40.998 12.8671 42.1903C14.1747 43.5214 16.3244 45 19.3301 45V33C19.8576 33 20.3668 33.1324 20.7887 33.3415C21.1751 33.5329 21.3827 33.7352 21.4278 33.7811C21.4682 33.8222 21.4248 33.7857 21.2915 33.5905C21.1551 33.3909 21.0079 33.1509 20.7789 32.7692L10.489 38.9432ZM19.3301 45C22.312 45 24.455 43.5436 25.7576 42.2525C26.9423 41.0783 27.7783 39.6914 28.1734 39.0517L17.9638 32.7457C17.7397 33.1087 17.592 33.3415 17.4565 33.5336C17.3233 33.7224 17.2764 33.763 17.3102 33.7296C17.3476 33.6924 17.5427 33.5057 17.9094 33.3267C18.3098 33.1312 18.8048 33 19.3301 33V45ZM28.1566 39.0787C28.3159 38.8238 28.4345 38.6362 28.5441 38.4723C28.6528 38.3096 28.7152 38.2272 28.7411 38.1951C28.7711 38.1578 28.7094 38.2415 28.5542 38.3769C28.4017 38.51 28.0597 38.7802 27.5212 39.0069L22.8645 27.9473C21.0782 28.6994 19.9447 29.9854 19.3929 30.671C18.783 31.4288 18.273 32.251 17.9806 32.7187L28.1566 39.0787ZM27.4212 39.048C26.9484 39.2371 26.5622 39.291 26.3499 39.3073C26.1402 39.3235 26.026 39.3087 26.0486 39.3111C26.0674 39.3131 26.1489 39.3235 26.3195 39.3588C26.4899 39.394 26.693 39.442 26.9664 39.5104L29.8768 27.8687C29.2808 27.7197 28.3231 27.4847 27.3108 27.3776C26.3444 27.2754 24.7027 27.211 22.9645 27.9063L27.4212 39.048ZM27.0724 39.5359C27.7065 39.6822 29.2597 40.077 30.8507 40.0877C32.6809 40.1 35.1766 39.6257 37.2524 37.5498L28.7672 29.0646C29.146 28.6857 29.6134 28.4052 30.0887 28.2433C30.5255 28.0944 30.8443 28.0874 30.9312 28.088C31.0087 28.0885 30.9693 28.096 30.7377 28.0541C30.4944 28.0101 30.2297 27.9491 29.7707 27.8432L27.0724 39.5359ZM37.2524 37.5498C39.5639 35.2384 39.8293 32.4163 39.6157 30.4939C39.4305 28.8273 38.8193 27.2398 38.5596 26.53L27.2901 30.653C27.4564 31.1076 27.5583 31.393 27.6329 31.6386C27.7069 31.8822 27.7 31.9178 27.6891 31.819C27.6774 31.7141 27.6439 31.3112 27.795 30.751C27.9623 30.1308 28.2993 29.5324 28.7672 29.0646L37.2524 37.5498ZM38.5581 26.526C38.4356 26.192 38.3491 25.9546 38.2766 25.7383C38.2048 25.5237 38.1789 25.4229 38.1729 25.3968C38.1643 25.3592 38.2093 25.5307 38.2134 25.8423C38.2175 26.1548 38.1832 26.7957 37.8599 27.5636L26.8003 22.907C25.8677 25.1217 26.2784 27.2155 26.4766 28.0795C26.7107 29.1001 27.0927 30.1146 27.2916 30.657L38.5581 26.526ZM37.8599 27.5636C37.5479 28.3046 37.1361 28.7578 36.9339 28.9556C36.7297 29.1553 36.5956 29.2342 36.6393 29.2061C36.6734 29.1842 36.7724 29.1248 36.9791 29.0179C37.1876 28.9102 37.4204 28.7974 37.7425 28.6419L32.5255 17.8353C31.9964 18.0907 31.0264 18.5494 30.1556 19.1085C29.4222 19.5794 27.7064 20.7547 26.8003 22.907L37.8599 27.5636ZM37.8719 28.5775C38.5015 28.2546 40.0569 27.502 41.3488 26.4405C42.7773 25.2667 44.7026 23.0507 44.7026 19.6699H32.7026C32.7026 18.9773 32.905 18.3355 33.1946 17.8388C33.4518 17.3976 33.708 17.1874 33.7304 17.169C33.7528 17.1506 33.6798 17.2123 33.4192 17.3609C33.1498 17.5144 32.8601 17.6617 32.3961 17.8997L37.8719 28.5775ZM44.7026 19.6699C44.7026 19.4075 44.6861 19.1511 44.6553 18.9023C44.6245 18.6536 44.5807 18.4233 44.5303 18.2133C44.4304 17.7971 44.3084 17.481 44.2523 17.3407C44.2386 17.3067 44.2274 17.2796 44.2229 17.2685C44.2209 17.2638 44.2183 17.2575 44.219 17.2592C44.219 17.2592 44.2191 17.2595 44.2193 17.2599C44.2195 17.2603 44.2197 17.2609 44.2201 17.2618C44.2208 17.2634 44.2219 17.2661 44.2232 17.2694C44.228 17.2809 44.2409 17.3126 44.2572 17.354C44.2736 17.3961 44.2976 17.4587 44.3247 17.5356C44.352 17.6128 44.3853 17.7125 44.4199 17.83C44.4546 17.9478 44.4924 18.09 44.5275 18.2527C44.5977 18.579 44.6601 19.003 44.6601 19.5H32.6601C32.6601 20.0076 32.7239 20.4423 32.7965 20.7793C32.8327 20.9474 32.8719 21.095 32.9082 21.2183C32.9444 21.3413 32.9796 21.4466 33.0088 21.5294C33.038 21.612 33.0641 21.6803 33.0828 21.7282C33.1013 21.7755 33.1167 21.8131 33.1239 21.8307C33.1277 21.8399 33.1308 21.8475 33.1319 21.8501C33.1339 21.8548 33.1326 21.8516 33.132 21.8502C33.13 21.8454 33.1215 21.8247 33.1105 21.7973C33.065 21.6836 32.9536 21.3968 32.8616 21.0137C32.8152 20.8203 32.7748 20.6076 32.7463 20.3777C32.7178 20.1476 32.7026 19.9112 32.7026 19.6699H44.7026ZM31.7915 16.7577C31.2388 17.0424 30.0929 17.6078 29.0789 18.3131C28.0445 19.0327 26.4824 20.3328 25.5964 22.4739L36.6846 27.0621C36.4927 27.526 36.2506 27.8364 36.097 28.0027C35.9532 28.1584 35.8687 28.2078 35.9317 28.164C35.9935 28.121 36.1223 28.0394 36.3686 27.9046C36.4875 27.8396 36.6201 27.7695 36.776 27.6886C36.942 27.6024 37.0886 27.5275 37.287 27.4254L31.7915 16.7577ZM25.6352 22.3823C24.6768 24.5941 24.873 26.6815 25.1316 27.9939C25.3749 29.2282 25.8361 30.4767 26.0171 31.0048L37.3685 27.1129C37.3336 27.0112 37.2988 26.9106 37.2671 26.8187C37.2344 26.7243 37.2048 26.6386 37.1758 26.5541C37.1177 26.3847 37.0705 26.2438 37.0299 26.1165C36.9455 25.852 36.9149 25.7229 36.9051 25.6736C36.8956 25.6253 36.9274 25.7562 36.9173 26.0086C36.9063 26.2815 36.846 26.6918 36.6459 27.1536L25.6352 22.3823ZM26.0541 31.1093C26.1936 31.4929 26.2831 31.7384 26.3561 31.9612C26.4299 32.1861 26.4324 32.2271 26.4187 32.155C26.412 32.1194 26.3188 31.659 26.4183 30.9741C26.5316 30.1946 26.9197 29.0195 27.9813 28.0287L36.1691 36.8014C38.9563 34.2 38.3671 30.7571 38.2096 29.9243C37.9868 28.7469 37.5217 27.5313 37.3316 27.0084L26.0541 31.1093ZM27.8325 28.1724C28.5472 27.4577 29.3453 27.1045 29.9504 26.9478C30.5008 26.8053 30.8902 26.823 30.9705 26.8274C31.0639 26.8324 31.0488 26.8395 30.8596 26.8023C30.6732 26.7657 30.4455 26.7126 30.0901 26.6264L27.2629 38.2886C27.8492 38.4308 29.0812 38.7428 30.3228 38.8099C31.5098 38.874 34.1663 38.8092 36.3178 36.6577L27.8325 28.1724ZM30.0901 26.6264C29.0188 26.3667 25.668 25.4115 22.3464 26.786L26.9346 37.8742C26.3999 38.0954 26.036 38.0498 26.1274 38.0569C26.1708 38.0603 26.2783 38.0725 26.4812 38.112C26.6881 38.1523 26.9285 38.2076 27.2629 38.2886L30.0901 26.6264ZM22.277 26.8152C19.0351 28.2046 17.3709 31.223 16.8353 32.1051L27.0928 38.3328C27.2659 38.0476 27.3923 37.8446 27.5066 37.6736C27.6188 37.5059 27.6846 37.4222 27.7128 37.3888C27.7778 37.3118 27.5522 37.61 27.004 37.8449L22.277 26.8152ZM16.8951 32.0086C16.6739 32.358 16.5406 32.5684 16.4151 32.751C16.2919 32.9303 16.2675 32.9468 16.3228 32.8867C16.373 32.8322 16.6287 32.5594 17.1064 32.2894C17.6343 31.9911 18.3865 31.7255 19.2876 31.7255V43.7255C22.2965 43.7255 24.2507 41.9927 25.1519 41.0136C26.0271 40.0627 26.7278 38.9112 27.033 38.4293L16.8951 32.0086ZM19.2876 31.7255C20.2465 31.7255 21.0304 32.0186 21.561 32.3276C22.0408 32.607 22.2934 32.885 22.3373 32.9338C22.3884 32.9908 22.3608 32.9693 22.2385 32.7869C22.1164 32.6051 21.9801 32.3852 21.7692 32.0411L11.538 38.3118C11.8653 38.8458 12.549 39.995 13.4127 40.9559C14.2674 41.9066 16.2243 43.7255 19.2876 43.7255V31.7255ZM21.8298 32.1422C21.3177 31.2686 19.6504 28.1062 16.3406 26.6877L11.6136 37.7175C11.3139 37.589 11.1021 37.4403 10.9775 37.3375C10.8594 37.2401 10.8177 37.1825 10.8469 37.2181C10.8768 37.2547 10.9448 37.3442 11.0594 37.5214C11.1758 37.7015 11.3037 37.9145 11.4774 38.2108L21.8298 32.1422ZM16.2712 26.6585C12.8474 25.2418 9.36779 26.3407 8.31999 26.6264L11.4774 38.2036C11.8039 38.1146 12.043 38.0529 12.2475 38.0078C12.4495 37.9632 12.5569 37.9487 12.5987 37.9445C12.7003 37.9343 12.2885 37.9973 11.683 37.7467L16.2712 26.6585ZM8.48509 26.5839C8.09446 26.6786 7.85626 26.737 7.63631 26.7832C7.42014 26.8287 7.37984 26.8275 7.44361 26.8223C7.49155 26.8184 7.85924 26.7878 8.39657 26.9047C8.98716 27.0333 9.82812 27.3532 10.6036 28.0803L2.39635 36.8347C4.64011 38.9383 7.34263 38.8699 8.41341 38.7831C9.58256 38.6883 10.7949 38.3716 11.3123 38.2461L8.48509 26.5839ZM10.7426 28.2149C11.637 29.1092 11.991 30.1202 12.1126 30.8046C12.2222 31.4208 12.1606 31.8398 12.1529 31.8935C12.1415 31.9733 12.1397 31.9422 12.1975 31.74C12.2535 31.5439 12.3302 31.3065 12.447 30.9562L1.0628 27.1615C0.863744 27.7586 0.448582 28.9711 0.273538 30.1964C0.132121 31.1863 -0.181367 34.2614 2.25736 36.7002L10.7426 28.2149ZM12.4789 30.8578C12.6665 30.2606 13.0714 29.0416 13.2727 27.7972C13.4819 26.5039 13.606 24.478 12.6548 22.3561L1.70468 27.2648C1.50579 26.8211 1.44186 26.4325 1.42526 26.1825C1.40978 25.9494 1.43476 25.8309 1.42667 25.8809C1.41857 25.931 1.39285 26.059 1.32154 26.3117C1.28722 26.4334 1.24659 26.5693 1.19696 26.73C1.14535 26.8972 1.0947 27.057 1.03094 27.2599L12.4789 30.8578ZM12.7238 22.5163C11.8754 20.4658 10.4228 19.1743 9.36274 18.413C8.32887 17.6704 7.21132 17.1197 6.59178 16.8099L1.22522 27.543C1.56807 27.7145 1.81029 27.8375 2.02105 27.9539C2.22781 28.0681 2.3272 28.1342 2.36275 28.1598C2.39838 28.1853 2.30758 28.1261 2.16678 27.9682C2.01713 27.8004 1.80512 27.5142 1.63564 27.1046L12.7238 22.5163ZM6.65624 16.8426C6.28423 16.651 6.04944 16.529 5.85274 16.4174C5.65476 16.3051 5.63829 16.2823 5.71038 16.3385C5.77026 16.3851 6.10983 16.6522 6.45265 17.1813C6.83855 17.7769 7.18954 18.6517 7.18954 19.7124H-4.81046C-4.81046 23.031 -2.67997 25.0138 -1.66381 25.8053C-0.62589 26.6138 0.611386 27.2273 1.16076 27.5103L6.65624 16.8426ZM7.18954 19.7124C7.18954 19.7073 7.19029 19.5687 7.18269 19.4015C7.17502 19.2328 7.15652 18.9646 7.10259 18.6411C7.02792 18.193 6.74104 16.6512 5.3897 15.2998L-3.09558 23.7851C-3.78846 23.0922 -4.17131 22.367 -4.38166 21.8528C-4.59221 21.3381 -4.68722 20.8953 -4.73413 20.6139C-4.82117 20.0916 -4.81046 19.6566 -4.81046 19.7124H7.18954ZM7.14706 19.5425C7.14706 19.7854 7.13213 19.9948 7.1148 20.16C7.09732 20.3266 7.07507 20.4702 7.05451 20.5847C7.03381 20.7001 7.01237 20.7995 6.99377 20.8791C6.97506 20.9593 6.95718 21.0281 6.94228 21.0827C6.91356 21.188 6.88821 21.2687 6.87646 21.3055C6.86993 21.3259 6.86481 21.3415 6.86238 21.3489C6.86023 21.3554 6.85856 21.3604 6.8604 21.3549C6.86122 21.3524 6.86555 21.3395 6.8703 21.325C6.87535 21.3097 6.88304 21.2863 6.89206 21.258C6.90879 21.2056 6.93879 21.1097 6.97149 20.9897C6.98838 20.9278 7.00808 20.8519 7.02841 20.7648C7.04863 20.6783 7.07148 20.5721 7.09334 20.4503C7.11506 20.3293 7.13823 20.1795 7.15633 20.0069C7.17428 19.8358 7.18954 19.6208 7.18954 19.3725H-4.81046C-4.81046 19.1296 -4.79553 18.9203 -4.7782 18.7551C-4.76072 18.5884 -4.73846 18.4448 -4.71791 18.3303C-4.69721 18.215 -4.67577 18.1155 -4.65717 18.0359C-4.63846 17.9558 -4.62058 17.887 -4.60568 17.8324C-4.57696 17.727 -4.55161 17.6464 -4.53986 17.6096C-4.53333 17.5891 -4.52821 17.5735 -4.52578 17.5661C-4.52363 17.5596 -4.52196 17.5546 -4.5238 17.5602C-4.52462 17.5626 -4.52894 17.5756 -4.5337 17.59C-4.53875 17.6053 -4.54644 17.6288 -4.55546 17.657C-4.57219 17.7094 -4.60218 17.8054 -4.63489 17.9253C-4.65178 17.9872 -4.67148 18.0631 -4.69181 18.1502C-4.71203 18.2368 -4.73488 18.3429 -4.75674 18.4647C-4.77846 18.5857 -4.80162 18.7355 -4.81973 18.9081C-4.83768 19.0793 -4.85294 19.2943 -4.85294 19.5425H7.14706ZM7.18954 19.3725C7.18954 20.4996 6.80248 21.401 6.41651 21.9826C6.07495 22.4973 5.74546 22.751 5.71038 22.7784C5.66007 22.8175 5.69757 22.7826 5.91743 22.6542C6.14172 22.5233 6.38393 22.3928 6.78161 22.1759L1.03538 11.6411C0.53347 11.9149 -0.678711 12.5442 -1.66381 13.3115C-2.5836 14.028 -4.81046 16.0033 -4.81046 19.3725H7.18954ZM6.59178 22.2751C7.21132 21.9653 8.32887 21.4145 9.36274 20.672C10.4228 19.9107 11.8754 18.6191 12.7238 16.5686L1.63564 11.9804C1.80512 11.5708 2.01713 11.2845 2.16678 11.1167C2.30758 10.9588 2.39838 10.8996 2.36275 10.9252C2.3272 10.9507 2.22781 11.0169 2.02105 11.131C1.81029 11.2474 1.56807 11.3705 1.22522 11.5419L6.59178 22.2751ZM12.7506 16.5029C13.5544 14.4934 13.4636 12.5947 13.2635 11.2984C13.0681 10.0334 12.6819 8.85398 12.4636 8.17922L1.04623 11.8731C1.16217 12.2314 1.24386 12.4909 1.30812 12.7227C1.37126 12.9505 1.39561 13.0752 1.40402 13.1297C1.41239 13.1839 1.39396 13.1006 1.40478 12.9191C1.41628 12.7263 1.46151 12.4146 1.60888 12.0462L12.7506 16.5029ZM12.4636 8.17922C12.3435 7.80825 12.264 7.55729 12.2042 7.34489C12.1428 7.12668 12.1425 7.08677 12.1529 7.15964C12.1588 7.20102 12.2253 7.63719 12.1085 8.27961C11.9776 8.99957 11.5893 10.0847 10.5939 11.0138L2.40609 2.24112C-0.232032 4.70337 0.144291 7.95197 0.273538 8.8567C0.445503 10.0605 0.854314 11.2799 1.04623 11.8731L12.4636 8.17922ZM10.7426 10.8701C10 11.6127 9.16167 11.9743 8.51907 12.1283C7.93853 12.2675 7.52835 12.2377 7.44362 12.2308C7.34424 12.2227 7.35615 12.2151 7.54662 12.2582C7.73404 12.3007 7.96195 12.3609 8.31999 12.4585L11.4774 0.881353C10.8997 0.723799 9.66189 0.371263 8.41341 0.270035C7.22505 0.173682 4.47735 0.164824 2.25736 2.38481L10.7426 10.8701ZM8.48509 12.501C9.04166 12.636 10.1901 12.9344 11.3592 13.0603C12.5936 13.1932 14.3806 13.2088 16.2712 12.4265L11.683 1.33825C12.0115 1.20234 12.2904 1.15363 12.4654 1.13746C12.6294 1.12232 12.7029 1.1356 12.6441 1.12927C12.5831 1.1227 12.4551 1.10381 12.2159 1.05236C12.0998 1.02739 11.9706 0.997676 11.8176 0.961188C11.6558 0.9226 11.5089 0.886494 11.3123 0.838835L8.48509 12.501ZM16.3406 12.3972C19.6504 10.9787 21.3177 7.81641 21.8298 6.94281L11.4774 0.874181C11.3037 1.17044 11.1758 1.38348 11.0594 1.56359C10.9448 1.74075 10.8768 1.83025 10.8469 1.86683C10.8177 1.90247 10.8594 1.8449 10.9775 1.74748C11.1021 1.64465 11.3139 1.49593 11.6136 1.36748L16.3406 12.3972ZM21.7692 7.04387C21.9975 6.6714 22.1291 6.45498 22.2579 6.25981C22.383 6.07033 22.4053 6.05665 22.3463 6.12317C22.2916 6.18481 22.0246 6.47939 21.524 6.76845C20.9671 7.09003 20.1949 7.35948 19.2876 7.35948V-4.64052C16.2333 -4.64052 14.2751 -2.86055 13.3718 -1.84294C12.5176 -0.880606 11.8266 0.302275 11.538 0.773125L21.7692 7.04387ZM19.2876 7.35948C18.3865 7.35948 17.6343 7.09386 17.1064 6.79554C16.6287 6.52561 16.373 6.2528 16.3227 6.19823C16.2675 6.1382 16.2919 6.15467 16.4151 6.33396C16.5406 6.51661 16.6739 6.727 16.8951 7.07633L27.033 0.655701C26.7278 0.173813 26.0271 -0.977768 25.1519 -1.92862C24.2507 -2.90776 22.2965 -4.64052 19.2876 -4.64052V7.35948ZM16.917 7.11056C17.2547 7.63593 17.8467 8.57362 18.5732 9.43459C19.3268 10.3277 20.4965 11.479 22.2037 12.2378L27.0774 1.27203C27.3609 1.39805 27.5552 1.5376 27.6611 1.62486C27.7611 1.70724 27.7885 1.74804 27.7447 1.69613C27.7 1.64317 27.6191 1.53933 27.4878 1.34838C27.3522 1.15118 27.2113 0.932803 27.0111 0.621468L16.917 7.11056ZM22.3464 12.299C24.167 13.0523 25.8844 13.077 27.1085 12.9718C28.248 12.8739 29.3861 12.6104 29.9215 12.4969L27.4314 0.758047C27.2203 0.802828 27.0921 0.830699 26.9171 0.867479C26.7615 0.900172 26.6312 0.926634 26.5138 0.948817C26.2724 0.994418 26.144 1.0105 26.081 1.01591C25.9457 1.02754 26.3461 0.967275 26.9346 1.2108L22.3464 12.299ZM30.0901 12.4586C30.4455 12.3724 30.6732 12.3193 30.8596 12.2827C31.0488 12.2455 31.0639 12.2525 30.9705 12.2576C30.8902 12.2619 30.5008 12.2797 29.9504 12.1372C29.3453 11.9805 28.5472 11.6272 27.8325 10.9126L36.3178 2.42729C34.1663 0.275815 31.5098 0.210926 30.3228 0.275087C29.0812 0.342198 27.8492 0.65422 27.2629 0.796351L30.0901 12.4586ZM27.9813 11.0563C26.9197 10.0655 26.5316 8.89033 26.4183 8.11085C26.3188 7.42599 26.412 6.96553 26.4187 6.92999C26.4324 6.85784 26.4299 6.89886 26.3561 7.12378C26.2831 7.34656 26.1936 7.59204 26.0541 7.97569L37.3316 12.0766C37.5217 11.5537 37.9868 10.3381 38.2096 9.1607C38.3671 8.3279 38.9563 4.88501 36.1691 2.2836L27.9813 11.0563ZM26.0683 7.93703C25.8221 8.59973 25.3557 9.82544 25.1077 11.1325C24.8497 12.4916 24.6989 14.5421 25.6352 16.7026L36.6459 11.9313C36.8341 12.3657 36.8955 12.7535 36.9087 13.0189C36.9211 13.2666 36.8915 13.4 36.8972 13.3699C36.9031 13.3392 36.9278 13.2281 37.003 12.9962C37.0799 12.7593 37.1762 12.4952 37.3174 12.1153L26.0683 7.93703ZM25.5964 16.6111C26.4824 18.7521 28.0445 20.0523 29.0789 20.7718C30.0929 21.4772 31.2388 22.0426 31.7915 22.3273L37.287 11.6596C37.0886 11.5574 36.942 11.4826 36.776 11.3964C36.6201 11.3155 36.4875 11.2454 36.3686 11.1803C36.1223 11.0455 35.9935 10.9639 35.9317 10.921C35.8687 10.8772 35.9532 10.9266 36.097 11.0823C36.2506 11.2486 36.4927 11.559 36.6846 12.0229L25.5964 16.6111ZM31.9178 22.3905C32.274 22.5635 32.5231 22.6889 32.7186 22.7964C32.9209 22.9078 32.9542 22.9399 32.8969 22.8965C32.8575 22.8667 32.528 22.6189 32.1829 22.1097C31.7966 21.5396 31.3856 20.6243 31.3856 19.4575H43.3856C43.3856 16.035 41.0835 14.0438 40.1432 13.3314C39.0747 12.522 37.8346 11.9238 37.1606 11.5964L31.9178 22.3905ZM31.3856 19.4575C31.3856 19.4626 31.3849 19.6012 31.3925 19.7684C31.4001 19.9371 31.4186 20.2053 31.4726 20.5289C31.5472 20.9769 31.8341 22.5187 33.1855 23.8701L41.6707 15.3848C42.3636 16.0777 42.7465 16.803 42.9568 17.3172C43.1674 17.8318 43.2624 18.2747 43.3093 18.5561C43.3963 19.0783 43.3856 19.5134 43.3856 19.4575H31.3856ZM31.4281 19.6275C31.4281 19.3846 31.443 19.1752 31.4604 19.01C31.4778 18.8433 31.5001 18.6998 31.5206 18.5852C31.5414 18.4699 31.5628 18.3705 31.5814 18.2908C31.6001 18.2107 31.618 18.1419 31.6329 18.0873C31.6616 17.982 31.6869 17.9013 31.6987 17.8645C31.7052 17.844 31.7103 17.8284 31.7128 17.8211C31.7149 17.8146 31.7166 17.8096 31.7148 17.8151C31.7139 17.8175 31.7096 17.8305 31.7049 17.8449C31.6998 17.8602 31.6921 17.8837 31.6831 17.9119C31.6664 17.9644 31.6364 18.0603 31.6037 18.1802C31.5868 18.2421 31.5671 18.3181 31.5467 18.4051C31.5265 18.4917 31.5037 18.5978 31.4818 18.7197C31.4601 18.8406 31.4369 18.9905 31.4188 19.163C31.4009 19.3342 31.3856 19.5492 31.3856 19.7974H43.3856C43.3856 20.0403 43.3707 20.2497 43.3534 20.4149C43.3359 20.5815 43.3136 20.7251 43.2931 20.8396C43.2724 20.9549 43.2509 21.0544 43.2323 21.134C43.2136 21.2141 43.1957 21.2829 43.1809 21.3376C43.1521 21.4429 43.1268 21.5235 43.115 21.5604C43.1085 21.5808 43.1034 21.5964 43.101 21.6038C43.0988 21.6103 43.0971 21.6153 43.099 21.6098C43.0998 21.6073 43.1041 21.5943 43.1089 21.5799C43.1139 21.5646 43.1216 21.5411 43.1306 21.5129C43.1474 21.4605 43.1774 21.3645 43.2101 21.2446C43.2269 21.1827 43.2467 21.1068 43.267 21.0197C43.2872 20.9332 43.31 20.827 43.3319 20.7052C43.3536 20.5842 43.3768 20.4344 43.3949 20.2618C43.4128 20.0907 43.4281 19.8757 43.4281 19.6275H31.4281ZM31.3931 20.097C31.3135 18.5053 31.9565 17.3619 32.366 16.8153C32.5696 16.5435 32.7539 16.3627 32.8609 16.2655C32.9707 16.1657 33.0462 16.1114 33.0624 16.0999C33.0821 16.086 33.0101 16.1375 32.7782 16.262C32.5544 16.3822 32.2829 16.5171 31.9178 16.6945L37.1606 27.4886C37.8227 27.167 39.004 26.5984 40.0095 25.8845C40.5248 25.5187 41.297 24.9083 41.9698 24.0102C42.6767 23.0666 43.479 21.5143 43.3781 19.4978L31.3931 20.097Z" fill="#0AC2B7" mask="url(#path-7-inside-4_1_740)"/>
</g>
</g>
</svg>
