<svg width="19" height="19" viewBox="0 0 19 19" fill="none" xmlns="http://www.w3.org/2000/svg">
<g id="Group">
<g id="Vector">
<mask id="path-1-inside-1_1_2126" fill="white">
<path d="M11.8065 6.66532L5.83386 11.4118C5.7152 11.5107 5.67564 11.7084 5.7943 11.8271C5.85363 11.9062 5.93274 11.9457 6.03163 11.9457C6.09096 11.9457 6.17006 11.926 6.20962 11.8864L12.1822 7.13996C12.3009 7.04108 12.3404 6.84331 12.2218 6.72465C12.1229 6.58621 11.9449 6.56643 11.8065 6.66532Z"/>
</mask>
<path d="M11.8065 6.66532L5.83386 11.4118C5.7152 11.5107 5.67564 11.7084 5.7943 11.8271C5.85363 11.9062 5.93274 11.9457 6.03163 11.9457C6.09096 11.9457 6.17006 11.926 6.20962 11.8864L12.1822 7.13996C12.3009 7.04108 12.3404 6.84331 12.2218 6.72465C12.1229 6.58621 11.9449 6.56643 11.8065 6.66532Z" fill="#0AC2B7"/>
<path d="M11.8065 6.66532L8.31905 1.78292L8.1939 1.87231L8.0735 1.96799L11.8065 6.66532ZM5.83386 11.4118L2.10088 6.71444L2.0463 6.75781L1.99275 6.80244L5.83386 11.4118ZM5.7943 11.8271L10.5943 8.22708L10.3385 7.88596L10.0369 7.58444L5.7943 11.8271ZM6.20962 11.8864L2.47664 7.18909L2.20885 7.4019L1.96698 7.64377L6.20962 11.8864ZM12.1822 7.13996L15.9152 11.8373L15.9698 11.7939L16.0233 11.7493L12.1822 7.13996ZM12.2218 6.72465L7.33939 10.2121L7.62802 10.6162L7.97915 10.9673L12.2218 6.72465ZM8.0735 1.96799L2.10088 6.71444L9.56683 16.1091L15.5395 11.3626L8.0735 1.96799ZM1.99275 6.80244C0.727542 7.85678 -0.0294175 9.32391 -0.225582 10.8442C-0.432428 12.4472 -0.0341878 14.4839 1.55166 16.0697L10.0369 7.58444C11.5041 9.05163 11.8628 10.9301 11.6758 12.3798C11.4994 13.7468 10.8215 15.0656 9.67496 16.0211L1.99275 6.80244ZM0.994303 15.4271C2.18673 17.017 4.04415 17.9457 6.03163 17.9457V5.94575C6.80254 5.94575 7.69385 6.10573 8.58144 6.54953C9.46903 6.99333 10.1318 7.61039 10.5943 8.22708L0.994303 15.4271ZM6.03163 17.9457C6.66397 17.9457 7.29315 17.85 7.89258 17.6656C8.40779 17.507 9.4693 17.112 10.4523 16.1291L1.96698 7.64377C2.91038 6.70037 3.91256 6.335 4.36349 6.19625C4.89865 6.03158 5.45862 5.94575 6.03163 5.94575V17.9457ZM9.94259 16.5837L15.9152 11.8373L8.44926 2.44264L2.47664 7.18909L9.94259 16.5837ZM16.0233 11.7493C17.2886 10.6949 18.0455 9.22781 18.2417 7.70754C18.4485 6.10449 18.0503 4.06785 16.4644 2.48201L7.97915 10.9673C6.51197 9.50011 6.15327 7.62168 6.34034 6.17191C6.51672 4.8049 7.19458 3.4861 8.34113 2.53064L16.0233 11.7493ZM17.1042 3.23722C14.8684 0.107169 10.849 -0.0242229 8.31905 1.78292L15.2939 11.5477C14.2134 12.3195 12.7784 12.759 11.236 12.5534C9.65135 12.3421 8.24599 11.4813 7.33939 10.2121L17.1042 3.23722Z" fill="#0AC2B7" mask="url(#path-1-inside-1_1_2126)"/>
</g>
<g id="Vector_2">
<mask id="path-3-inside-2_1_2126" fill="white">
<path d="M7.43563 8.78072C7.51474 8.78072 7.59385 8.78072 7.67295 8.76094C8.48381 8.64228 9.05734 7.87098 8.9189 7.04035C8.85957 6.64481 8.64202 6.28883 8.32559 6.05151C8.00916 5.81419 7.61362 5.7153 7.21809 5.77463C6.82255 5.83396 6.46657 6.05151 6.22924 6.36794C5.99192 6.68437 5.89304 7.07991 5.95237 7.47544C6.07103 8.24674 6.72366 8.78072 7.43563 8.78072ZM7.29719 6.38772C7.33675 6.38772 7.39608 6.36794 7.43563 6.36794C7.87072 6.36794 8.26626 6.68437 8.32559 7.13924C8.4047 7.63366 8.06849 8.08853 7.57407 8.16763C7.07965 8.24674 6.62478 7.91054 6.54567 7.41611C6.46657 6.92169 6.82255 6.46682 7.29719 6.38772Z"/>
</mask>
<path d="M7.43563 8.78072C7.51474 8.78072 7.59385 8.78072 7.67295 8.76094C8.48381 8.64228 9.05734 7.87098 8.9189 7.04035C8.85957 6.64481 8.64202 6.28883 8.32559 6.05151C8.00916 5.81419 7.61362 5.7153 7.21809 5.77463C6.82255 5.83396 6.46657 6.05151 6.22924 6.36794C5.99192 6.68437 5.89304 7.07991 5.95237 7.47544C6.07103 8.24674 6.72366 8.78072 7.43563 8.78072ZM7.29719 6.38772C7.33675 6.38772 7.39608 6.36794 7.43563 6.36794C7.87072 6.36794 8.26626 6.68437 8.32559 7.13924C8.4047 7.63366 8.06849 8.08853 7.57407 8.16763C7.07965 8.24674 6.62478 7.91054 6.54567 7.41611C6.46657 6.92169 6.82255 6.46682 7.29719 6.38772Z" fill="#0AC2B7"/>
<path d="M7.67295 8.76094L6.80416 2.82417L6.50806 2.86751L6.21774 2.94009L7.67295 8.76094ZM8.9189 7.04035L2.98528 7.9304L2.99252 7.97863L3.00053 8.02675L8.9189 7.04035ZM5.95237 7.47544L0.0187483 8.36549L0.020421 8.37664L0.0221362 8.38779L5.95237 7.47544ZM7.29719 6.38772V0.387715H6.80062L6.3108 0.469352L7.29719 6.38772ZM8.32559 7.13924L2.37599 7.91527L2.38722 8.00141L2.40095 8.08718L8.32559 7.13924ZM7.43563 14.7807C7.44414 14.7807 7.67098 14.7827 7.92855 14.7666C8.21203 14.7488 8.63345 14.7055 9.12817 14.5818L6.21774 2.94009C6.63336 2.83618 6.97566 2.8027 7.18004 2.78993C7.3585 2.77877 7.50623 2.78072 7.43563 2.78072V14.7807ZM8.54175 14.6977C12.6717 14.0933 15.5291 10.2049 14.8373 6.05396L3.00053 8.02675C2.58558 5.53703 4.29593 3.19123 6.80416 2.82417L8.54175 14.6977ZM14.8525 6.15031C14.5536 4.15729 13.4722 2.41148 11.9256 1.25151L4.72559 10.8515C3.81182 10.1662 3.16557 9.13233 2.98528 7.9304L14.8525 6.15031ZM11.9256 1.25151C10.3084 0.038609 8.29165 -0.453527 6.32804 -0.158986L8.10813 11.7083C6.9356 11.8841 5.70993 11.5898 4.72559 10.8515L11.9256 1.25151ZM6.32804 -0.158986C4.33503 0.139966 2.58922 1.2213 1.42924 2.76794L11.0292 9.96794C10.3439 10.8817 9.31007 11.528 8.10813 11.7083L6.32804 -0.158986ZM1.42924 2.76794C0.216342 4.38514 -0.275793 6.40188 0.0187483 8.36549L11.886 6.5854C12.0619 7.75793 11.7675 8.9836 11.0292 9.96794L1.42924 2.76794ZM0.0221362 8.38779C0.588159 12.0669 3.74291 14.7807 7.43563 14.7807V2.78072C9.70442 2.78072 11.5539 4.42655 11.8826 6.5631L0.0221362 8.38779ZM7.29719 12.3877C7.42366 12.3877 7.53763 12.3838 7.63644 12.3783C7.73544 12.3728 7.8245 12.3655 7.90158 12.3579C8.05287 12.343 8.17845 12.325 8.26574 12.3112C8.35383 12.2973 8.42522 12.2841 8.46722 12.2761C8.50697 12.2686 8.54205 12.2615 8.54313 12.2613C8.55441 12.2591 8.53169 12.2636 8.50414 12.2689C8.47435 12.2745 8.41501 12.2855 8.33867 12.2976C8.26312 12.3095 8.14897 12.326 8.00866 12.3398C7.93706 12.3469 7.85337 12.3538 7.7596 12.359C7.66603 12.3642 7.55716 12.3679 7.43563 12.3679V0.367938C7.30916 0.367938 7.19519 0.371862 7.09639 0.377331C6.99739 0.382811 6.90833 0.390139 6.83124 0.397739C6.67996 0.412655 6.55437 0.430671 6.46708 0.444454C6.379 0.458362 6.30761 0.471543 6.26561 0.479517C6.22586 0.487065 6.19078 0.494131 6.18969 0.494348C6.17842 0.496603 6.20114 0.492009 6.22868 0.486779C6.25847 0.481122 6.31781 0.470105 6.39415 0.458051C6.4697 0.446122 6.58385 0.429651 6.72417 0.415817C6.79577 0.408758 6.87946 0.401854 6.97323 0.396664C7.0668 0.391485 7.17567 0.387715 7.29719 0.387715V12.3877ZM7.43563 12.3679C5.05374 12.3679 2.73137 10.6399 2.37599 7.91527L14.2752 6.3632C13.8012 2.72887 10.6877 0.367938 7.43563 0.367938V12.3679ZM2.40095 8.08718C1.94582 5.24262 3.91575 2.67665 6.62613 2.24299L8.52201 14.0923C12.2212 13.5004 14.8636 10.0247 14.2502 6.19129L2.40095 8.08718ZM6.62613 2.24299C9.47069 1.78786 12.0367 3.75779 12.4703 6.46817L0.621029 8.36406C1.2129 12.0633 4.68861 14.7056 8.52201 14.0923L6.62613 2.24299ZM12.4703 6.46817C12.9439 9.42799 10.862 11.8763 8.28359 12.3061L6.3108 0.469352C2.78307 1.05731 -0.0107584 4.41539 0.621029 8.36406L12.4703 6.46817Z" fill="#0AC2B7" mask="url(#path-3-inside-2_1_2126)"/>
</g>
<path id="Vector_3" d="M12.0975 11.2538C12.0976 11.2604 12.0977 11.2669 12.0977 11.2736H12.0246H11.5095C11.5099 11.267 11.5102 11.2604 11.5104 11.2538C11.5104 10.7594 11.0951 10.344 10.6007 10.344C10.1298 10.344 9.73059 10.7208 9.69374 11.1839L9.10789 11.1614C9.16533 10.3875 9.81221 9.77659 10.6007 9.77659C10.8689 9.77659 11.1206 9.84725 11.3384 9.97094C11.7035 10.1838 11.9754 10.5488 12.0689 10.9803C12.0865 11.0689 12.0963 11.1603 12.0975 11.2538ZM12.0549 11.2747L12.0977 11.2737C12.0977 11.2746 12.0977 11.2755 12.0977 11.2764C12.0961 12.1013 11.426 12.7705 10.6007 12.7705C10.3866 12.7705 10.1894 12.7298 10.0133 12.6577C9.59939 12.482 9.2807 12.1261 9.15547 11.6882C9.1247 11.5764 9.10736 11.4612 9.10459 11.345L9.69435 11.3309C9.73477 11.7906 10.1322 12.1635 10.6007 12.1635C11.0842 12.1635 11.4731 11.7853 11.5086 11.2877L12.0549 11.2747ZM9.69118 11.2736H9.10374C9.10374 11.2669 9.10378 11.2604 9.10387 11.2538H9.69096C9.69096 11.2604 9.69104 11.267 9.69118 11.2736Z" fill="#0AC2B7" stroke="#0AC2B7" stroke-width="6"/>
<g id="Vector_4">
<mask id="path-6-inside-3_1_2126" fill="white">
<path d="M17.997 9.07759C17.997 9.05781 18.0167 9.01826 18.0167 8.99848C18.0167 8.14807 17.1268 7.71298 16.3555 7.33722C15.8017 7.06035 15.2084 6.76369 15.0502 6.40771C14.892 6.03195 15.1095 5.41886 15.3271 4.84534C15.6237 4.03448 15.9204 3.20385 15.3666 2.6501C14.8129 2.09635 14.0218 2.29412 13.2307 2.47211C12.677 2.59077 12.1034 2.72921 11.7277 2.57099C11.3519 2.41278 11.0355 1.91836 10.7388 1.44371C10.3038 0.771298 9.82911 0 8.99848 0C8.16785 0 7.6932 0.771298 7.27789 1.46349C6.98124 1.95791 6.68458 2.45233 6.30882 2.61055C5.93306 2.76876 5.33976 2.63032 4.786 2.49189C3.99493 2.29412 3.18408 2.09635 2.6501 2.63033C2.09635 3.18408 2.37323 4.01471 2.63032 4.82556C2.82809 5.41886 3.00608 6.01217 2.84787 6.40771C2.68965 6.78347 2.1359 7.06035 1.60193 7.33722C0.850406 7.73276 0 8.16785 0 8.99848C0 9.01826 -1.91554e-08 9.05781 0.0197769 9.07759C0.0197769 9.09736 0 9.13692 0 9.15669C0 9.98732 0.850406 10.4422 1.60193 10.818C2.1359 11.0948 2.68965 11.3717 2.84787 11.7475C3.00608 12.1232 2.80832 12.7363 2.63032 13.3296C2.37323 14.1405 2.09635 14.9711 2.6501 15.5248C3.20385 16.0786 4.01471 15.8611 4.786 15.6633C5.33976 15.5248 5.93306 15.3864 6.30882 15.5446C6.68458 15.7028 6.98124 16.1973 7.27789 16.6917C7.6932 17.3839 8.16785 18.1552 8.99848 18.1552C9.82911 18.1552 10.3235 17.3839 10.7388 16.7115C11.0355 16.2368 11.3519 15.7424 11.7277 15.5842C12.1232 15.426 12.677 15.5446 13.2307 15.6831C14.002 15.8611 14.8129 16.0588 15.3666 15.5051C15.9204 14.9513 15.6237 14.1207 15.3271 13.3098C15.1095 12.7165 14.892 12.1232 15.0502 11.7475C15.2084 11.3717 15.7819 11.0948 16.3555 10.818C17.1268 10.4224 18.0167 9.98732 18.0167 9.15669C18.0167 9.11714 17.997 9.09736 17.997 9.07759ZM16.0786 10.284C15.426 10.6202 14.7338 10.9564 14.4964 11.5299C14.2393 12.1232 14.5162 12.8352 14.7535 13.5274C14.9909 14.18 15.2282 14.8129 14.9315 15.0898C14.6151 15.4062 14.002 15.2677 13.3494 15.1095C12.6968 14.9513 12.0441 14.8129 11.4706 15.0502C10.9168 15.2875 10.5609 15.8413 10.2246 16.395C9.84888 16.9883 9.4929 17.5619 8.9787 17.5619C8.48428 17.5619 8.12829 16.9883 7.75253 16.3753C7.41633 15.8017 7.06034 15.2282 6.50659 14.9909C5.93306 14.7535 5.26065 14.9118 4.60801 15.0898C3.95538 15.248 3.34229 15.4062 3.02586 15.1095C2.72921 14.8129 2.92698 14.18 3.14452 13.5274C3.36207 12.8352 3.59939 12.1232 3.34229 11.5497C3.10497 10.9762 2.45233 10.64 1.81947 10.3235C1.16684 9.98732 0.553752 9.67089 0.553752 9.17647C0.553752 9.15669 0.553752 9.11714 0.533976 9.09736C0.533976 9.07759 0.553752 9.03803 0.553752 9.01826C0.553752 8.54361 1.16684 8.22718 1.81947 7.8712C2.45233 7.55477 3.10497 7.21856 3.34229 6.64503C3.57961 6.05172 3.36207 5.33976 3.14452 4.66734C2.92698 3.99493 2.72921 3.36207 3.02586 3.08519C3.34229 2.76876 3.95538 2.92698 4.60801 3.10497C5.26065 3.26319 5.93306 3.44118 6.50659 3.20385C7.06034 2.96653 7.41633 2.393 7.75253 1.81947C8.12829 1.20639 8.4645 0.63286 8.9787 0.63286C9.4929 0.63286 9.84888 1.20639 10.2246 1.7997C10.5806 2.35345 10.9366 2.9072 11.4706 3.14452C12.0441 3.38185 12.6968 3.22363 13.3494 3.08519C14.002 2.92698 14.6151 2.78854 14.9315 3.10497C15.2282 3.38185 14.9909 4.01471 14.7535 4.66734C14.4964 5.35953 14.2393 6.0715 14.4964 6.66481C14.7338 7.23834 15.426 7.57454 16.0786 7.91075C16.7708 8.24696 17.4037 8.58317 17.4037 9.05781C17.4037 9.07759 17.4037 9.11714 17.4234 9.13692C17.4234 9.15669 17.4037 9.19625 17.4037 9.21602C17.4234 9.61156 16.7708 9.94777 16.0786 10.284Z"/>
</mask>
<path d="M17.997 9.07759C17.997 9.05781 18.0167 9.01826 18.0167 8.99848C18.0167 8.14807 17.1268 7.71298 16.3555 7.33722C15.8017 7.06035 15.2084 6.76369 15.0502 6.40771C14.892 6.03195 15.1095 5.41886 15.3271 4.84534C15.6237 4.03448 15.9204 3.20385 15.3666 2.6501C14.8129 2.09635 14.0218 2.29412 13.2307 2.47211C12.677 2.59077 12.1034 2.72921 11.7277 2.57099C11.3519 2.41278 11.0355 1.91836 10.7388 1.44371C10.3038 0.771298 9.82911 0 8.99848 0C8.16785 0 7.6932 0.771298 7.27789 1.46349C6.98124 1.95791 6.68458 2.45233 6.30882 2.61055C5.93306 2.76876 5.33976 2.63032 4.786 2.49189C3.99493 2.29412 3.18408 2.09635 2.6501 2.63033C2.09635 3.18408 2.37323 4.01471 2.63032 4.82556C2.82809 5.41886 3.00608 6.01217 2.84787 6.40771C2.68965 6.78347 2.1359 7.06035 1.60193 7.33722C0.850406 7.73276 0 8.16785 0 8.99848C0 9.01826 -1.91554e-08 9.05781 0.0197769 9.07759C0.0197769 9.09736 0 9.13692 0 9.15669C0 9.98732 0.850406 10.4422 1.60193 10.818C2.1359 11.0948 2.68965 11.3717 2.84787 11.7475C3.00608 12.1232 2.80832 12.7363 2.63032 13.3296C2.37323 14.1405 2.09635 14.9711 2.6501 15.5248C3.20385 16.0786 4.01471 15.8611 4.786 15.6633C5.33976 15.5248 5.93306 15.3864 6.30882 15.5446C6.68458 15.7028 6.98124 16.1973 7.27789 16.6917C7.6932 17.3839 8.16785 18.1552 8.99848 18.1552C9.82911 18.1552 10.3235 17.3839 10.7388 16.7115C11.0355 16.2368 11.3519 15.7424 11.7277 15.5842C12.1232 15.426 12.677 15.5446 13.2307 15.6831C14.002 15.8611 14.8129 16.0588 15.3666 15.5051C15.9204 14.9513 15.6237 14.1207 15.3271 13.3098C15.1095 12.7165 14.892 12.1232 15.0502 11.7475C15.2084 11.3717 15.7819 11.0948 16.3555 10.818C17.1268 10.4224 18.0167 9.98732 18.0167 9.15669C18.0167 9.11714 17.997 9.09736 17.997 9.07759ZM16.0786 10.284C15.426 10.6202 14.7338 10.9564 14.4964 11.5299C14.2393 12.1232 14.5162 12.8352 14.7535 13.5274C14.9909 14.18 15.2282 14.8129 14.9315 15.0898C14.6151 15.4062 14.002 15.2677 13.3494 15.1095C12.6968 14.9513 12.0441 14.8129 11.4706 15.0502C10.9168 15.2875 10.5609 15.8413 10.2246 16.395C9.84888 16.9883 9.4929 17.5619 8.9787 17.5619C8.48428 17.5619 8.12829 16.9883 7.75253 16.3753C7.41633 15.8017 7.06034 15.2282 6.50659 14.9909C5.93306 14.7535 5.26065 14.9118 4.60801 15.0898C3.95538 15.248 3.34229 15.4062 3.02586 15.1095C2.72921 14.8129 2.92698 14.18 3.14452 13.5274C3.36207 12.8352 3.59939 12.1232 3.34229 11.5497C3.10497 10.9762 2.45233 10.64 1.81947 10.3235C1.16684 9.98732 0.553752 9.67089 0.553752 9.17647C0.553752 9.15669 0.553752 9.11714 0.533976 9.09736C0.533976 9.07759 0.553752 9.03803 0.553752 9.01826C0.553752 8.54361 1.16684 8.22718 1.81947 7.8712C2.45233 7.55477 3.10497 7.21856 3.34229 6.64503C3.57961 6.05172 3.36207 5.33976 3.14452 4.66734C2.92698 3.99493 2.72921 3.36207 3.02586 3.08519C3.34229 2.76876 3.95538 2.92698 4.60801 3.10497C5.26065 3.26319 5.93306 3.44118 6.50659 3.20385C7.06034 2.96653 7.41633 2.393 7.75253 1.81947C8.12829 1.20639 8.4645 0.63286 8.9787 0.63286C9.4929 0.63286 9.84888 1.20639 10.2246 1.7997C10.5806 2.35345 10.9366 2.9072 11.4706 3.14452C12.0441 3.38185 12.6968 3.22363 13.3494 3.08519C14.002 2.92698 14.6151 2.78854 14.9315 3.10497C15.2282 3.38185 14.9909 4.01471 14.7535 4.66734C14.4964 5.35953 14.2393 6.0715 14.4964 6.66481C14.7338 7.23834 15.426 7.57454 16.0786 7.91075C16.7708 8.24696 17.4037 8.58317 17.4037 9.05781C17.4037 9.07759 17.4037 9.11714 17.4234 9.13692C17.4234 9.15669 17.4037 9.19625 17.4037 9.21602C17.4234 9.61156 16.7708 9.94777 16.0786 10.284Z" fill="#0AC2B7"/>
<path d="M16.3555 7.33722L13.6722 12.7038L13.6999 12.7176L13.7277 12.7312L16.3555 7.33722ZM15.0502 6.40771L9.52039 8.73605L9.54333 8.79053L9.56733 8.84454L15.0502 6.40771ZM15.3271 4.84534L20.9371 6.97326L20.9496 6.94011L20.9618 6.90682L15.3271 4.84534ZM13.2307 2.47211L14.4879 8.33892L14.5179 8.3325L14.5478 8.32577L13.2307 2.47211ZM10.7388 1.44371L15.8268 -1.73628L15.8019 -1.77624L15.7763 -1.8158L10.7388 1.44371ZM7.27789 1.46349L12.4228 4.55046L7.27789 1.46349ZM2.63032 4.82556L-3.08906 6.63902L-3.07573 6.68107L-3.06178 6.72292L2.63032 4.82556ZM2.84787 6.40771L8.37768 8.73605L8.39866 8.68624L8.41873 8.63605L2.84787 6.40771ZM1.60193 7.33722L-1.15998 2.01069L-1.17629 2.01915L-1.19255 2.02771L1.60193 7.33722ZM0.0197769 9.07759H6.01978V6.59231L4.26242 4.83495L0.0197769 9.07759ZM1.60193 10.818L4.36383 5.49142L4.32467 5.47112L4.28521 5.45139L1.60193 10.818ZM2.63032 13.3296L8.34971 15.1431L8.36384 15.0985L8.37728 15.0537L2.63032 13.3296ZM4.786 15.6633L3.33079 9.84243L3.31326 9.84682L3.29575 9.8513L4.786 15.6633ZM7.27789 16.6917L12.4228 13.6047L7.27789 16.6917ZM10.7388 16.7115L5.65085 13.5315L5.64242 13.545L5.63405 13.5585L10.7388 16.7115ZM11.7277 15.5842L9.49934 10.0133L9.44916 10.0334L9.39934 10.0544L11.7277 15.5842ZM13.2307 15.6831L11.7755 21.5039L11.8284 21.5171L11.8816 21.5294L13.2307 15.6831ZM15.3271 13.3098L20.9618 11.2483L20.9603 11.2443L15.3271 13.3098ZM16.3555 10.818L18.964 16.2213L19.0291 16.1898L19.0934 16.1569L16.3555 10.818ZM18.0167 9.15669H12.0167H18.0167ZM16.0786 10.284L13.4572 4.88693L13.3936 4.91779L13.3309 4.95013L16.0786 10.284ZM14.4964 11.5299L20.0018 13.9156L20.0215 13.87L20.0406 13.824L14.4964 11.5299ZM14.7535 13.5274L9.07787 15.4733L9.09585 15.5258L9.11479 15.5778L14.7535 13.5274ZM14.9315 15.0898L10.8376 10.7034L10.762 10.774L10.6889 10.8471L14.9315 15.0898ZM11.4706 15.0502L9.17648 9.5061L9.14168 9.5205L9.10707 9.53533L11.4706 15.0502ZM10.2246 16.395L15.2936 19.6053L15.3239 19.5574L15.3534 19.5089L10.2246 16.395ZM7.75253 16.3753L2.57635 19.4096L2.60614 19.4604L2.63693 19.5106L7.75253 16.3753ZM6.50659 14.9909L8.87011 9.476L8.8355 9.46117L8.8007 9.44677L6.50659 14.9909ZM4.60801 15.0898L6.02161 20.9209L6.10447 20.9008L6.18672 20.8783L4.60801 15.0898ZM3.02586 15.1095L-1.21678 19.3522L-1.14837 19.4206L-1.07779 19.4868L3.02586 15.1095ZM3.14452 13.5274L8.83662 15.4248L8.85298 15.3757L8.86849 15.3263L3.14452 13.5274ZM3.34229 11.5497L-2.20181 13.8438L-2.16845 13.9244L-2.13276 14.004L3.34229 11.5497ZM1.81947 10.3235L-0.928267 15.6574L-0.896137 15.6739L-0.863809 15.6901L1.81947 10.3235ZM0.533976 9.09736H-5.46602V11.5826L-3.70867 13.34L0.533976 9.09736ZM1.81947 7.8712L-0.863809 2.50463L-0.95961 2.55253L-1.05364 2.60382L1.81947 7.8712ZM3.34229 6.64503L8.88639 8.93914L8.89997 8.90634L8.91315 8.87337L3.34229 6.64503ZM3.02586 3.08519L7.11977 7.47152L7.19538 7.40096L7.2685 7.32783L3.02586 3.08519ZM4.60801 3.10497L3.02931 8.89355L3.11156 8.91599L3.19441 8.93607L4.60801 3.10497ZM6.50659 3.20385L8.8007 8.74796L8.8355 8.73356L8.87011 8.71872L6.50659 3.20385ZM7.75253 1.81947L2.63693 -1.3159L2.60614 -1.26567L2.57635 -1.21484L7.75253 1.81947ZM10.2246 1.7997L5.15573 5.01001L5.16659 5.02716L5.17757 5.04424L10.2246 1.7997ZM11.4706 3.14452L9.03376 8.62739L9.10472 8.65893L9.17648 8.68862L11.4706 3.14452ZM13.3494 3.08519L14.5944 8.9546L14.679 8.93666L14.763 8.91629L13.3494 3.08519ZM14.9315 3.10497L10.6889 7.34761L10.762 7.42074L10.8376 7.4913L14.9315 3.10497ZM14.7535 4.66734L20.3781 6.75646L20.3853 6.73716L20.3923 6.7178L14.7535 4.66734ZM14.4964 6.66481L20.0406 4.3707L20.0215 4.32477L20.0018 4.27916L14.4964 6.66481ZM16.0786 7.91075L13.3309 13.2446L13.3936 13.2769L13.4572 13.3078L16.0786 7.91075ZM17.4234 9.13692H23.4234V6.65164L21.6661 4.89428L17.4234 9.13692ZM17.4037 9.21602H11.4037V9.36593L11.4111 9.51565L17.4037 9.21602ZM23.997 9.07759C23.997 9.20136 23.9931 9.31523 23.9873 9.41765C23.9814 9.52019 23.9734 9.61455 23.9644 9.69958C23.9468 9.8678 23.9243 10.0131 23.9034 10.1293C23.8824 10.2464 23.8606 10.3476 23.8416 10.4291C23.8224 10.5111 23.8041 10.5818 23.7886 10.6384C23.7731 10.6952 23.759 10.7437 23.7476 10.7814C23.7363 10.8193 23.7264 10.8507 23.7192 10.8733C23.712 10.8958 23.7062 10.9135 23.703 10.923C23.7002 10.9317 23.6978 10.9388 23.6989 10.9354C23.6991 10.9351 23.7027 10.9242 23.7067 10.9119C23.7111 10.8987 23.7181 10.8774 23.7264 10.8512C23.7348 10.825 23.7458 10.7899 23.7582 10.7486C23.7706 10.7073 23.7858 10.6553 23.8022 10.5951C23.8186 10.5351 23.8378 10.4611 23.8577 10.3759C23.8775 10.2912 23.9 10.1868 23.9215 10.0667C23.9429 9.94747 23.9658 9.79931 23.9838 9.62834C23.9928 9.54192 24.001 9.44622 24.0069 9.34237C24.0128 9.23863 24.0167 9.12348 24.0167 8.99848H12.0167C12.0167 8.87471 12.0206 8.76084 12.0264 8.65841C12.0323 8.55588 12.0403 8.46152 12.0492 8.37648C12.0669 8.20827 12.0894 8.06301 12.1103 7.94677C12.1313 7.82969 12.1531 7.72845 12.1721 7.64696C12.1913 7.56499 12.2096 7.49428 12.2251 7.43771C12.2406 7.38088 12.2547 7.33238 12.266 7.29465C12.2774 7.25681 12.2873 7.22535 12.2945 7.20276C12.3017 7.18022 12.3075 7.16254 12.3106 7.15304C12.3135 7.14441 12.3159 7.13729 12.3147 7.14068C12.3146 7.141 12.311 7.15183 12.307 7.16414C12.3026 7.17733 12.2956 7.19869 12.2873 7.22485C12.2789 7.25107 12.2679 7.28613 12.2554 7.3275C12.243 7.36877 12.2279 7.42074 12.2115 7.48097C12.1951 7.54094 12.1759 7.61497 12.156 7.70017C12.1362 7.78489 12.1137 7.88926 12.0922 8.00935C12.0708 8.1286 12.0479 8.27675 12.0299 8.44773C12.0209 8.53415 12.0127 8.62985 12.0068 8.7337C12.0008 8.83743 11.997 8.95258 11.997 9.07759H23.997ZM24.0167 8.99848C24.0167 6.13186 22.3989 4.26981 21.2845 3.35413C20.318 2.55992 19.2214 2.05927 18.9833 1.94328L13.7277 12.7312C13.8289 12.7805 13.8905 12.8106 13.9456 12.8384C13.9707 12.8511 13.9888 12.8604 14.0017 12.8672C14.0145 12.874 14.0202 12.8771 14.0201 12.8771C14.0201 12.877 14.0124 12.8728 13.9985 12.8644C13.9846 12.8561 13.9625 12.8426 13.9338 12.8238C13.8787 12.7877 13.7841 12.7225 13.6661 12.6256C13.4436 12.4428 13.0279 12.057 12.6627 11.4213C12.2676 10.7332 12.0167 9.89622 12.0167 8.99848H24.0167ZM19.0388 1.97066C18.6873 1.79492 18.7164 1.80168 18.8097 1.86189C18.8755 1.90444 19.0996 2.05203 19.3755 2.31419C19.6358 2.56148 20.147 3.10225 20.5331 3.97088L9.56733 8.84454C10.409 10.7382 11.9302 11.704 12.2994 11.9424C12.8672 12.3091 13.4699 12.6026 13.6722 12.7038L19.0388 1.97066ZM20.58 4.07937C20.9529 4.965 21.0012 5.7324 20.9956 6.16343C20.99 6.60056 20.9254 6.91218 20.8985 7.03041C20.8549 7.22233 20.8153 7.2944 20.9371 6.97326L9.71709 2.71741C9.62136 2.9698 9.36416 3.63517 9.19693 4.37096C9.07321 4.91533 8.67869 6.73701 9.52039 8.73605L20.58 4.07937ZM20.9618 6.90682C21.0512 6.66252 21.4921 5.54622 21.6291 4.31389C21.7944 2.82569 21.6028 0.401017 19.6093 -1.59254L11.124 6.89274C10.4972 6.26595 10.0622 5.48872 9.84281 4.67521C9.63954 3.9216 9.66667 3.31081 9.70245 2.98872C9.72116 2.82032 9.74649 2.69339 9.76338 2.61858C9.78038 2.54333 9.79384 2.49905 9.79495 2.49538C9.79608 2.49166 9.79062 2.50985 9.77234 2.56218C9.75316 2.61708 9.73003 2.68083 9.69234 2.78385L20.9618 6.90682ZM19.6093 -1.59254C17.8664 -3.33542 15.7807 -3.72285 14.3471 -3.71316C13.1901 -3.70534 12.077 -3.4183 11.9137 -3.38155L14.5478 8.32577C14.6702 8.29822 14.7306 8.28439 14.7995 8.26944C14.8284 8.26316 14.8489 8.25888 14.8635 8.25594C14.8779 8.25301 14.8838 8.25196 14.8829 8.25212C14.8819 8.2523 14.8718 8.25411 14.854 8.25678C14.8362 8.25945 14.8084 8.26331 14.7721 8.26735C14.7017 8.27519 14.5833 8.28552 14.4282 8.28656C14.1239 8.28862 13.5936 8.25571 12.9589 8.03736C12.286 7.80589 11.6491 7.41785 11.124 6.89274L19.6093 -1.59254ZM11.9736 -3.3947C11.7818 -3.35362 11.7266 -3.34106 11.6511 -3.32614C11.5908 -3.31422 11.6328 -3.32457 11.7312 -3.33582C11.823 -3.34631 12.0761 -3.37131 12.4285 -3.34864C12.7789 -3.32609 13.3692 -3.24799 14.056 -2.95882L9.39934 8.10081C11.0428 8.79277 12.5473 8.64902 13.0937 8.58658C13.7197 8.51504 14.3639 8.36549 14.4879 8.33892L11.9736 -3.3947ZM14.056 -2.95882C14.7024 -2.68666 15.148 -2.34688 15.4006 -2.12656C15.6558 -1.90389 15.814 -1.71512 15.8777 -1.63604C15.974 -1.51639 16.0015 -1.45687 15.8268 -1.73628L5.65085 4.62371C5.77287 4.81894 6.1069 5.36299 6.52953 5.88807C6.89401 6.34091 7.82879 7.43952 9.39934 8.10081L14.056 -2.95882ZM15.7763 -1.8158C15.6772 -1.96893 15.0839 -2.94865 14.2596 -3.77294C13.2868 -4.74576 11.5237 -6 8.99848 -6V6C8.23211 6 7.51448 5.81207 6.90807 5.51332C6.33811 5.23253 5.96626 4.90425 5.77435 4.71234C5.58739 4.52539 5.49613 4.39149 5.51043 4.4116C5.53394 4.44466 5.55937 4.48369 5.70142 4.70322L15.7763 -1.8158ZM8.99848 -6C6.46966 -6 4.69457 -4.74279 3.70209 -3.73242C2.84592 -2.86082 2.27744 -1.86433 2.13293 -1.62349L12.4228 4.55046C12.4741 4.465 12.505 4.41405 12.5312 4.37193C12.556 4.33208 12.5639 4.32082 12.5596 4.32702C12.5553 4.33333 12.5302 4.36994 12.4855 4.42617C12.441 4.48229 12.3672 4.57052 12.2628 4.67677C12.0602 4.88302 11.6802 5.22088 11.1011 5.50776C10.4865 5.81221 9.76439 6 8.99848 6V-6ZM2.13293 -1.62349C2.05104 -1.48699 2.01851 -1.43351 1.99383 -1.39476C1.97109 -1.35908 2.00079 -1.40895 2.07154 -1.5007C2.13859 -1.58765 2.30511 -1.79467 2.5758 -2.03692C2.84711 -2.27972 3.31136 -2.63753 3.98048 -2.91926L8.63717 8.14036C10.2637 7.4555 11.2078 6.30242 11.5745 5.82689C11.9872 5.29166 12.319 4.72354 12.4228 4.55046L2.13293 -1.62349ZM3.98048 -2.91926C4.68016 -3.21386 5.27924 -3.28967 5.62678 -3.31076C5.98057 -3.33223 6.23606 -3.3061 6.33781 -3.29374C6.49619 -3.2745 6.55436 -3.25068 6.24122 -3.32897L3.33079 8.31274C3.5714 8.3729 4.2031 8.53515 4.89051 8.61866C5.45571 8.68733 6.9782 8.83887 8.63717 8.14036L3.98048 -2.91926ZM6.24122 -3.32897C5.99423 -3.39072 4.91281 -3.68852 3.74242 -3.71208C2.36469 -3.73982 0.206327 -3.41118 -1.59254 -1.61232L6.89274 6.87297C6.32371 7.442 5.64637 7.83487 4.96286 8.0584C4.32172 8.26807 3.79317 8.29137 3.50086 8.28549C3.34945 8.28244 3.23386 8.27093 3.16418 8.26228C3.09431 8.25361 3.05281 8.24554 3.04915 8.24483C3.04563 8.24415 3.06312 8.2475 3.11388 8.25945C3.16746 8.27206 3.2293 8.28737 3.33079 8.31274L6.24122 -3.32897ZM-1.59254 -1.61232C-3.54023 0.335372 -3.76521 2.69313 -3.64231 4.1395C-3.54124 5.32904 -3.14957 6.44817 -3.08906 6.63902L8.34971 3.0121C8.27035 2.76182 8.25412 2.70851 8.24464 2.67293C8.23748 2.64609 8.28921 2.82473 8.3146 3.12355C8.34057 3.4292 8.35327 4.01381 8.14838 4.73425C7.92752 5.51083 7.50459 6.26111 6.89274 6.87297L-1.59254 -1.61232ZM-3.06178 6.72292C-2.9574 7.03604 -2.99462 6.96214 -3.03063 6.76411C-3.05307 6.6407 -3.09846 6.3518 -3.0903 5.95401C-3.08211 5.55485 -3.01758 4.91584 -2.72299 4.17936L8.41873 8.63605C9.12911 6.86011 8.89185 5.25568 8.77581 4.61749C8.64092 3.87558 8.41582 3.20838 8.32242 2.92819L-3.06178 6.72292ZM-2.68194 4.07937C-2.34154 3.27091 -1.88468 2.73568 -1.59691 2.44575C-1.30822 2.1549 -1.06433 1.98556 -0.975022 1.92569C-0.87747 1.8603 -0.827723 1.83563 -0.877887 1.86305C-0.934603 1.89405 -0.994292 1.92478 -1.15998 2.01069L4.36383 12.6637C4.51205 12.5869 5.13684 12.2754 5.70664 11.8934C6.16718 11.5847 7.59132 10.6037 8.37768 8.73605L-2.68194 4.07937ZM-1.19255 2.02771C-1.3899 2.13158 -2.45758 2.65583 -3.37954 3.44396C-4.45691 4.36494 -6 6.20361 -6 8.99848H6C6 9.87529 5.76074 10.6934 5.38302 11.3697C5.03316 11.9962 4.63314 12.3814 4.41783 12.5654C4.20513 12.7472 4.05706 12.83 4.08347 12.8145C4.11716 12.7946 4.16899 12.7664 4.39641 12.6467L-1.19255 2.02771ZM-6 8.99848C-6 8.99852 -6.00001 9.00996 -5.99996 9.02339C-5.99991 9.03789 -5.99979 9.0587 -5.99947 9.08366C-5.99883 9.13325 -5.99736 9.20403 -5.9935 9.28885C-5.98619 9.44975 -5.9684 9.7094 -5.91589 10.0244C-5.84405 10.4555 -5.56286 11.9802 -4.22286 13.3202L4.26242 4.83495C4.96098 5.5335 5.34808 6.26587 5.56162 6.78786C5.77536 7.31034 5.87251 7.76166 5.92083 8.05163C6.01071 8.59088 6 9.04297 6 8.99848H-6ZM-5.98022 9.07759C-5.98022 8.95382 -5.97637 8.83994 -5.97053 8.73751C-5.96467 8.63498 -5.95663 8.54062 -5.94771 8.45558C-5.93006 8.28737 -5.90756 8.14211 -5.8867 8.02587C-5.86569 7.90879 -5.84387 7.80755 -5.82484 7.72606C-5.8057 7.64409 -5.78733 7.57338 -5.7719 7.51681C-5.7564 7.45998 -5.74224 7.41148 -5.73091 7.37376C-5.71953 7.33591 -5.70965 7.30445 -5.70244 7.28186C-5.69525 7.25933 -5.68944 7.24164 -5.68631 7.23214C-5.68347 7.22352 -5.68109 7.2164 -5.68221 7.21978C-5.68232 7.2201 -5.68594 7.23094 -5.69 7.24325C-5.69435 7.25643 -5.70135 7.27779 -5.7097 7.30396C-5.71807 7.33018 -5.72907 7.36523 -5.74151 7.40661C-5.75391 7.44787 -5.76907 7.49985 -5.78549 7.56007C-5.80185 7.62004 -5.82107 7.69407 -5.84097 7.77927C-5.86075 7.86399 -5.88322 7.96836 -5.90478 8.08845C-5.92618 8.2077 -5.9491 8.35585 -5.96704 8.52683C-5.9761 8.61325 -5.98426 8.70895 -5.99019 8.8128C-5.99611 8.91654 -6 9.03169 -6 9.15669H6C6 9.28047 5.99615 9.39434 5.9903 9.49677C5.98445 9.5993 5.9764 9.69366 5.96748 9.7787C5.94984 9.94691 5.92734 10.0922 5.90648 10.2084C5.88546 10.3255 5.86365 10.4267 5.84462 10.5082C5.82547 10.5902 5.8071 10.6609 5.79168 10.7175C5.77618 10.7743 5.76202 10.8228 5.75068 10.8605C5.73931 10.8984 5.72943 10.9298 5.72222 10.9524C5.71502 10.975 5.70922 10.9926 5.70609 11.0021C5.70324 11.0108 5.70086 11.0179 5.70199 11.0145C5.7021 11.0142 5.70571 11.0033 5.70977 10.991C5.71412 10.9778 5.72113 10.9565 5.72948 10.9303C5.73785 10.9041 5.74885 10.869 5.76129 10.8277C5.77369 10.7864 5.78885 10.7344 5.80527 10.6742C5.82163 10.6142 5.84085 10.5402 5.86074 10.455C5.88053 10.3703 5.903 10.2659 5.92455 10.1458C5.94596 10.0266 5.96888 9.87843 5.98682 9.70745C5.99588 9.62103 6.00404 9.52533 6.00997 9.42148C6.01589 9.31774 6.01978 9.20259 6.01978 9.07759H-5.98022ZM-6 9.15669C-6 11.9287 -4.48087 13.7684 -3.40067 14.7005C-2.44457 15.5255 -1.38165 16.0344 -1.08135 16.1845L4.28521 5.45139C4.20214 5.40986 4.14956 5.38309 4.10869 5.36161C4.06907 5.34079 4.05754 5.33383 4.06424 5.33775C4.0708 5.34159 4.10901 5.36408 4.16847 5.40504C4.22757 5.44575 4.32271 5.515 4.43895 5.61531C4.65984 5.80592 5.05247 6.19069 5.39465 6.80916C5.76247 7.47398 6 8.28292 6 9.15669H-6ZM-1.15998 16.1445C-0.994292 16.2304 -0.934603 16.2611 -0.877887 16.2921C-0.827723 16.3195 -0.87747 16.2949 -0.975022 16.2295C-1.06433 16.1696 -1.30822 16.0003 -1.59691 15.7094C-1.88468 15.4195 -2.34154 14.8843 -2.68194 14.0758L8.37768 9.41912C7.59132 7.55152 6.16718 6.57048 5.70664 6.26177C5.13684 5.87981 4.51205 5.56828 4.36383 5.49142L-1.15998 16.1445ZM-2.68194 14.0758C-3.03618 13.2345 -3.0911 12.5112 -3.09416 12.1163C-3.09728 11.7146 -3.04732 11.4319 -3.03025 11.3416C-3.01104 11.2401 -2.99728 11.1998 -3.01613 11.2672C-3.03774 11.3443 -3.05906 11.4136 -3.11663 11.6055L8.37728 15.0537C8.42344 14.8999 8.63578 14.2321 8.7606 13.5723C8.85502 13.0732 9.18015 11.325 8.37768 9.41912L-2.68194 14.0758ZM-3.08906 11.5162C-3.14957 11.707 -3.54124 12.8261 -3.64231 14.0157C-3.76521 15.462 -3.54023 17.8198 -1.59254 19.7675L6.89274 11.2822C7.50459 11.8941 7.92752 12.6443 8.14838 13.4209C8.35327 14.1414 8.34057 14.726 8.3146 15.0316C8.28921 15.3304 8.23748 15.5091 8.24464 15.4822C8.25412 15.4467 8.27035 15.3934 8.34971 15.1431L-3.08906 11.5162ZM-1.59254 19.7675C0.206058 21.5661 2.36646 21.9121 3.79749 21.8737C4.97959 21.842 6.08533 21.5242 6.27626 21.4753L3.29575 9.8513C3.18532 9.87962 3.12556 9.89501 3.06703 9.90935C3.0139 9.92238 2.99672 9.92583 3.00093 9.92497C3.0055 9.92403 3.04975 9.91498 3.12331 9.90516C3.1968 9.89535 3.3177 9.88228 3.47545 9.87805C3.78268 9.8698 4.32475 9.89233 4.97766 10.1063C5.67215 10.3339 6.34017 10.7296 6.89274 11.2822L-1.59254 19.7675ZM6.24122 21.4841C6.55435 21.4059 6.49619 21.4297 6.33781 21.4489C6.23606 21.4613 5.98057 21.4874 5.62678 21.4659C5.27924 21.4448 4.68015 21.369 3.98048 21.0744L8.63717 10.0148C6.9782 9.3163 5.45571 9.46784 4.89051 9.53651C4.2031 9.62003 3.57141 9.78228 3.33079 9.84243L6.24122 21.4841ZM3.98048 21.0744C3.31136 20.7927 2.84711 20.4349 2.5758 20.1921C2.30511 19.9498 2.13858 19.7428 2.07154 19.6559C2.00079 19.5641 1.97109 19.5142 1.99383 19.5499C2.01851 19.5887 2.05104 19.6422 2.13293 19.7787L12.4228 13.6047C12.319 13.4316 11.9872 12.8635 11.5745 12.3283C11.2078 11.8528 10.2637 10.6997 8.63717 10.0148L3.98048 21.0744ZM2.13293 19.7787C2.27744 20.0195 2.84592 21.016 3.70209 21.8876C4.69458 22.898 6.46966 24.1552 8.99848 24.1552V12.1552C9.76439 12.1552 10.4865 12.343 11.1011 12.6474C11.6802 12.9343 12.0602 13.2721 12.2628 13.4784C12.3672 13.5846 12.441 13.6729 12.4855 13.729C12.5302 13.7852 12.5553 13.8218 12.5596 13.8282C12.5639 13.8343 12.556 13.8231 12.5312 13.7832C12.505 13.7411 12.4741 13.6902 12.4228 13.6047L2.13293 19.7787ZM8.99848 24.1552C11.5036 24.1552 13.2662 22.9201 14.2481 21.9469C15.112 21.0907 15.6869 20.1182 15.8436 19.8644L5.63405 13.5585C5.58494 13.638 5.5552 13.6856 5.53078 13.7236C5.50755 13.7598 5.50073 13.7691 5.50595 13.7617C5.50794 13.7589 5.60652 13.6164 5.80066 13.424C6.22387 13.0046 7.32399 12.1552 8.99848 12.1552V24.1552ZM15.8268 19.8915C16.0015 19.612 15.974 19.6716 15.8777 19.7912C15.814 19.8703 15.6558 20.0591 15.4006 20.2817C15.148 20.5021 14.7024 20.8418 14.056 21.114L9.39934 10.0544C7.82879 10.7157 6.894 11.8143 6.52953 12.2671C6.1069 12.7922 5.77287 13.3362 5.65085 13.5315L15.8268 19.8915ZM13.956 21.155C13.3698 21.3895 12.8587 21.469 12.5129 21.4956C12.1699 21.5221 11.9137 21.5023 11.7888 21.4891C11.5859 21.4676 11.4998 21.435 11.7755 21.5039L14.6859 9.86221C14.4079 9.79269 13.768 9.6315 13.051 9.55566C12.3797 9.48466 11.0106 9.40883 9.49934 10.0133L13.956 21.155ZM11.8816 21.5294C12.0729 21.5736 13.1719 21.8605 14.34 21.8683C15.7473 21.8778 17.8513 21.5057 19.6093 19.7477L11.124 11.2624C11.6618 10.7246 12.3066 10.3391 12.9724 10.1122C13.5998 9.89844 14.1221 9.8666 14.4205 9.86861C14.5735 9.86963 14.6908 9.87975 14.7621 9.88767C14.8334 9.89559 14.876 9.9033 14.8795 9.90394C14.8826 9.9045 14.8646 9.90128 14.8107 9.88943C14.7512 9.87633 14.6913 9.86243 14.5799 9.83672L11.8816 21.5294ZM19.6093 19.7477C21.6028 17.7542 21.7944 15.3295 21.6291 13.8413C21.4921 12.609 21.0512 11.4927 20.9618 11.2483L9.69234 15.3713C9.73003 15.4743 9.75316 15.5381 9.77234 15.593C9.79062 15.6453 9.79608 15.6635 9.79495 15.6598C9.79384 15.6561 9.78038 15.6118 9.76338 15.5366C9.74649 15.4618 9.72116 15.3348 9.70245 15.1665C9.66667 14.8444 9.63954 14.2336 9.84281 13.48C10.0622 12.6665 10.4972 11.8892 11.124 11.2624L19.6093 19.7477ZM20.9603 11.2443C20.8168 10.8528 20.8564 10.9335 20.8959 11.1058C20.9227 11.2228 20.9897 11.5412 20.9956 11.9879C21.0015 12.4356 20.9488 13.2 20.58 14.0758L9.52039 9.41912C8.67868 11.4182 9.07237 13.2338 9.19958 13.7884C9.3627 14.4996 9.61983 15.1736 9.69382 15.3754L20.9603 11.2443ZM20.58 14.0758C20.2226 14.9247 19.7356 15.4786 19.4358 15.7718C19.1341 16.067 18.88 16.236 18.789 16.2944C18.6576 16.3788 18.5903 16.4017 18.964 16.2213L13.747 5.41464C13.5472 5.51111 12.9063 5.81086 12.3052 6.19683C11.8414 6.49464 10.3358 7.48263 9.52039 9.41912L20.58 14.0758ZM19.0934 16.1569C19.2802 16.0611 20.3588 15.5469 21.2845 14.7862C22.3469 13.9133 24.0167 12.0606 24.0167 9.15669H12.0167C12.0167 8.22559 12.283 7.3738 12.6822 6.68905C13.0491 6.05987 13.4607 5.68358 13.6661 5.51475C13.8716 5.34589 14.0093 5.27279 13.969 5.29576C13.92 5.32373 13.8602 5.35461 13.6176 5.47905L19.0934 16.1569ZM24.0167 9.15669C24.0167 8.89991 24.0006 8.64889 23.9704 8.40504C23.9402 8.16135 23.8973 7.93579 23.848 7.73022C23.7502 7.32284 23.631 7.01464 23.5777 6.88142C23.5648 6.84916 23.5543 6.82377 23.5504 6.81434C23.5489 6.81055 23.5466 6.80511 23.5476 6.80758C23.5478 6.80789 23.55 6.81324 23.5529 6.82025C23.5583 6.8334 23.5719 6.86661 23.5887 6.90963C23.6058 6.95326 23.6303 7.01741 23.658 7.09584C23.6858 7.17454 23.7196 7.27571 23.7546 7.3947C23.7897 7.51397 23.8279 7.65756 23.8633 7.82173C23.9342 8.15088 23.997 8.57773 23.997 9.07759H11.997C11.997 9.58238 12.0603 10.0142 12.1323 10.3484C12.1682 10.515 12.2071 10.6612 12.2429 10.783C12.2787 10.9045 12.3134 11.0083 12.3421 11.0896C12.3707 11.1707 12.3962 11.2375 12.4144 11.2838C12.4323 11.3296 12.447 11.3655 12.4536 11.3815C12.457 11.3899 12.4598 11.3967 12.4605 11.3985C12.4622 11.4024 12.4605 11.3984 12.4596 11.3961C12.4569 11.3896 12.4476 11.3672 12.436 11.338C12.3876 11.2172 12.2734 10.9226 12.1793 10.5306C12.1318 10.3328 12.0905 10.1154 12.0614 9.88046C12.0323 9.64534 12.0167 9.40359 12.0167 9.15669H24.0167ZM13.3309 4.95013C13.1529 5.04182 12.3929 5.41422 11.7054 5.89252C10.9974 6.38503 9.70205 7.42403 8.95235 9.23581L20.0406 13.824C19.5282 15.0623 18.6976 15.6464 18.5582 15.7434C18.4567 15.8139 18.4075 15.8374 18.4696 15.8033C18.545 15.7621 18.616 15.7262 18.8263 15.6178L13.3309 4.95013ZM8.99111 9.14428C8.18029 11.0154 8.3708 12.7282 8.55282 13.6517C8.71944 14.4972 9.03305 15.3426 9.07787 15.4733L20.4292 11.5814C20.3423 11.3278 20.3224 11.2745 20.2932 11.1828C20.2723 11.1174 20.2978 11.1863 20.3264 11.3314C20.3749 11.5776 20.5555 12.6377 20.0018 13.9156L8.99111 9.14428ZM9.11479 15.5778C9.29819 16.0822 9.20668 15.8784 9.14736 15.5648C9.11084 15.3718 9.007 14.7673 9.1246 13.9579C9.25596 13.0539 9.6909 11.7737 10.8376 10.7034L19.0254 19.4761C21.6424 17.0336 21.0362 13.8519 20.9382 13.3341C20.7751 12.4718 20.4462 11.6252 20.3923 11.4769L9.11479 15.5778ZM10.6889 10.8471C12.3423 9.19372 14.2673 9.26892 14.5904 9.28638C14.9681 9.3068 15.204 9.38534 14.763 9.27843L11.9358 20.9406C12.1474 20.9919 13.0162 21.2188 13.9427 21.2689C14.8146 21.316 17.2044 21.3022 19.1742 19.3324L10.6889 10.8471ZM14.763 9.27843C14.4411 9.20039 11.8395 8.40415 9.17648 9.5061L13.7647 20.5943C12.9007 20.9518 12.1848 20.9346 11.913 20.9133C11.7747 20.9025 11.6977 20.8863 11.7147 20.8896C11.7357 20.8937 11.7887 20.905 11.9358 20.9406L14.763 9.27843ZM9.10707 9.53533C6.501 10.6522 5.24544 13.0349 5.09592 13.2812L15.3534 19.5089C15.5307 19.2168 15.4882 19.3115 15.3518 19.4732C15.1868 19.6687 14.7001 20.1939 13.8341 20.5651L9.10707 9.53533ZM5.15573 13.1847C5.04234 13.3637 5.01545 13.4053 4.9982 13.4304C4.98325 13.4521 5.06879 13.3224 5.239 13.1375C5.50987 12.8432 6.77916 11.5619 8.9787 11.5619V23.5619C11.6924 23.5619 13.3968 21.9937 14.0682 21.2644C14.7135 20.5633 15.2041 19.7466 15.2936 19.6053L5.15573 13.1847ZM8.9787 11.5619C11.2638 11.5619 12.5514 12.9293 12.7834 13.1874C12.9481 13.3707 13.0297 13.4975 13.0152 13.4759C13.0011 13.4548 12.9712 13.408 12.8681 13.2399L2.63693 19.5106C2.7485 19.6927 3.22221 20.5012 3.85886 21.2095C4.48641 21.9076 6.19922 23.5619 8.9787 23.5619V11.5619ZM12.9287 13.3409C12.8026 13.1258 11.5441 10.622 8.87011 9.476L4.14307 20.5057C3.22509 20.1123 2.72339 19.5471 2.5674 19.3564C2.48238 19.2525 2.44326 19.1894 2.45526 19.208C2.46918 19.2295 2.49918 19.2779 2.57635 19.4096L12.9287 13.3409ZM8.8007 9.44677C6.0354 8.30251 3.32778 9.21977 3.02931 9.30117L6.18672 20.8783C6.5117 20.7897 6.41202 20.832 6.18399 20.8548C5.91662 20.8815 5.14721 20.9218 4.21248 20.535L8.8007 9.44677ZM3.19441 9.25866C2.99111 9.30794 2.9374 9.32086 2.89449 9.32989C2.85536 9.33812 2.98466 9.30779 3.20596 9.28985C3.41288 9.27307 5.38384 9.09575 7.12951 10.7323L-1.07779 19.4868C0.984314 21.42 3.42003 21.3119 4.17576 21.2506C5.02985 21.1813 5.87887 20.9555 6.02161 20.9209L3.19441 9.25866ZM7.2685 10.8669C8.24802 11.8464 8.65166 12.9667 8.79603 13.7787C8.92829 14.5227 8.86243 15.0879 8.83207 15.3005C8.78154 15.6541 8.69325 15.8549 8.83662 15.4248L-2.54758 11.63C-2.62175 11.8525 -2.9177 12.696 -3.04733 13.6034C-3.14333 14.2755 -3.4852 17.0837 -1.21678 19.3522L7.2685 10.8669ZM8.86849 15.3263C8.93128 15.1266 9.20554 14.3106 9.3444 13.4522C9.49117 12.5449 9.62094 10.888 8.81735 9.09536L-2.13276 14.004C-2.67926 12.7849 -2.5396 11.7708 -2.50161 11.5359C-2.47849 11.393 -2.45595 11.3237 -2.4712 11.3778C-2.48986 11.4439 -2.5119 11.5135 -2.57944 11.7284L8.86849 15.3263ZM8.88639 9.25559C8.17415 7.53433 6.97708 6.50391 6.2292 5.9668C5.50755 5.44852 4.75898 5.08508 4.50275 4.95697L-0.863809 15.6901C-0.70261 15.7707 -0.643465 15.8015 -0.609389 15.8203C-0.579315 15.837 -0.650224 15.8002 -0.770783 15.7136C-0.974795 15.5671 -1.72689 14.9915 -2.20181 13.8438L8.88639 9.25559ZM4.56721 4.98968C4.38253 4.89454 4.33224 4.86762 4.3069 4.85325C4.28029 4.83815 4.42206 4.91473 4.62897 5.0759C4.90578 5.29153 6.55375 6.6361 6.55375 9.17647H-5.44625C-5.44625 12.2113 -3.49174 13.9613 -2.74522 14.5428C-1.97694 15.1412 -1.10298 15.5674 -0.928267 15.6574L4.56721 4.98968ZM6.55375 9.17647C6.55375 9.17643 6.55376 9.16499 6.55371 9.15156C6.55366 9.13706 6.55354 9.11625 6.55322 9.09129C6.55259 9.0417 6.55111 8.97092 6.54725 8.8861C6.53994 8.7252 6.52215 8.46555 6.46964 8.15052C6.3978 7.71948 6.11661 6.19471 4.77662 4.85472L-3.70867 13.34C-4.40722 12.6414 -4.79433 11.9091 -5.00787 11.3871C-5.22161 10.8646 -5.31875 10.4133 -5.36708 10.1233C-5.45696 9.58407 -5.44625 9.13198 -5.44625 9.17647H6.55375ZM6.53398 9.09736C6.53398 9.22114 6.53013 9.33501 6.52428 9.43744C6.51842 9.53997 6.51038 9.63433 6.50146 9.71937C6.48381 9.88758 6.46132 10.0328 6.44045 10.1491C6.41944 10.2662 6.39762 10.3674 6.37859 10.4489C6.35945 10.5309 6.34108 10.6016 6.32565 10.6581C6.31015 10.715 6.296 10.7635 6.28466 10.8012C6.27328 10.839 6.2634 10.8705 6.25619 10.8931C6.249 10.9156 6.24319 10.9333 6.24006 10.9428C6.23722 10.9514 6.23484 10.9586 6.23597 10.9552C6.23607 10.9548 6.23969 10.944 6.24375 10.9317C6.2481 10.9185 6.2551 10.8972 6.26345 10.871C6.27182 10.8448 6.28283 10.8097 6.29526 10.7683C6.30766 10.7271 6.32282 10.6751 6.33925 10.6149C6.3556 10.5549 6.37482 10.4809 6.39472 10.3957C6.4145 10.311 6.43698 10.2066 6.45853 10.0865C6.47993 9.96725 6.50286 9.8191 6.52079 9.64812C6.52986 9.5617 6.53801 9.466 6.54394 9.36215C6.54986 9.25841 6.55375 9.14326 6.55375 9.01826H-5.44625C-5.44625 8.89448 -5.4424 8.78061 -5.43655 8.67818C-5.4307 8.57565 -5.42265 8.48129 -5.41373 8.39625C-5.39609 8.22804 -5.37359 8.08278 -5.35273 7.96654C-5.33171 7.84946 -5.30989 7.74822 -5.29086 7.66673C-5.27172 7.58476 -5.25335 7.51405 -5.23792 7.45748C-5.22242 7.40065 -5.20827 7.35215 -5.19693 7.31442C-5.18556 7.27658 -5.17567 7.24512 -5.16846 7.22253C-5.16127 7.2 -5.15547 7.18231 -5.15233 7.17281C-5.14949 7.16419 -5.14711 7.15707 -5.14824 7.16045C-5.14835 7.16077 -5.15196 7.1716 -5.15602 7.18392C-5.16037 7.1971 -5.16738 7.21846 -5.17573 7.24463C-5.18409 7.27085 -5.1951 7.3059 -5.20753 7.34728C-5.21993 7.38854 -5.23509 7.44052 -5.25152 7.50074C-5.26787 7.56071 -5.28709 7.63474 -5.30699 7.71994C-5.32677 7.80466 -5.34925 7.90903 -5.3708 8.02912C-5.39221 8.14837 -5.41513 8.29652 -5.43306 8.4675C-5.44213 8.55392 -5.45028 8.64962 -5.45621 8.75347C-5.46214 8.85721 -5.46602 8.97236 -5.46602 9.09736H6.53398ZM6.55375 9.01826C6.55375 11.6404 4.80941 12.9931 4.62897 13.1337C4.44384 13.2779 4.3231 13.3437 4.3716 13.3154C4.42452 13.2845 4.48224 13.2533 4.69259 13.1386L-1.05364 2.60382C-1.18089 2.67323 -2.02977 3.1095 -2.74522 3.6668C-3.39537 4.17323 -5.44625 5.92146 -5.44625 9.01826H6.55375ZM4.50275 13.2378C4.75898 13.1096 5.50755 12.7462 6.2292 12.2279C6.97708 11.6908 8.17415 10.6604 8.88639 8.93914L-2.20181 4.35092C-1.72689 3.20319 -0.974795 2.62764 -0.770783 2.48112C-0.650224 2.39454 -0.579315 2.35777 -0.609389 2.37438C-0.643465 2.3932 -0.70261 2.42403 -0.863809 2.50463L4.50275 13.2378ZM8.91315 8.87337C9.5807 7.20451 9.48427 5.68051 9.34371 4.77023C9.20798 3.89122 8.94661 3.10917 8.85319 2.82042L-2.56414 6.51426C-2.51065 6.67962 -2.4914 6.74325 -2.48143 6.77922C-2.47257 6.81118 -2.49435 6.74003 -2.51574 6.60147C-2.55247 6.36361 -2.65879 5.49225 -2.22857 4.41669L8.91315 8.87337ZM8.85319 2.82042C8.70268 2.3552 8.78462 2.54731 8.83207 2.87942C8.86068 3.07974 8.93139 3.66067 8.79188 4.42797C8.63827 5.27282 8.20033 6.46301 7.11977 7.47152L-1.06805 -1.30114C-3.53587 1.00216 -3.13116 3.98963 -3.04733 4.57647C-2.92078 5.46233 -2.63118 6.30707 -2.56414 6.51426L8.85319 2.82042ZM7.2685 7.32783C5.5466 9.04974 3.53045 8.91636 3.20596 8.89005C2.82135 8.85886 2.5797 8.77093 3.02931 8.89355L6.18672 -2.68361C5.98368 -2.73899 5.10918 -2.99502 4.17576 -3.0707C3.30246 -3.14151 0.821554 -3.19578 -1.21678 -1.15745L7.2685 7.32783ZM3.19441 8.93607C3.37632 8.98017 4.14439 9.18208 4.94453 9.26825C5.80997 9.36145 7.23929 9.39406 8.8007 8.74796L4.21248 -2.34025C5.20036 -2.74903 6.00671 -2.68675 6.22941 -2.66277C6.35296 -2.64946 6.41221 -2.6343 6.36105 -2.6453C6.2946 -2.65959 6.23159 -2.67523 6.02161 -2.72613L3.19441 8.93607ZM8.87011 8.71872C11.5441 7.57272 12.8026 5.06889 12.9287 4.85379L2.57635 -1.21484C2.49918 -1.0832 2.46918 -1.0348 2.45526 -1.01327C2.44326 -0.994709 2.48238 -1.05777 2.5674 -1.16168C2.72339 -1.35234 3.22509 -1.91759 4.14307 -2.31102L8.87011 8.71872ZM12.8681 4.95484C12.9886 4.75836 13.0152 4.71507 13.0379 4.68063C13.0569 4.65186 12.9721 4.78649 12.8009 4.97931C12.5125 5.30428 11.2236 6.63286 8.9787 6.63286V-5.36714C6.21964 -5.36714 4.50551 -3.75179 3.82647 -2.98679C3.19649 -2.27707 2.7098 -1.43479 2.63693 -1.3159L12.8681 4.95484ZM8.9787 6.63286C6.77916 6.63286 5.50987 5.35149 5.239 5.05721C5.06879 4.87229 4.98325 4.74259 4.9982 4.76436C5.01545 4.78947 5.04234 4.83098 5.15573 5.01001L15.2936 -1.41062C15.2041 -1.5519 14.7135 -2.36856 14.0682 -3.06964C13.3968 -3.79901 11.6924 -5.36714 8.9787 -5.36714V6.63286ZM5.17757 5.04424C5.31095 5.25172 5.69858 5.87151 6.19512 6.46C6.71881 7.08067 7.6331 8.00488 9.03376 8.62739L13.9074 -2.33835C14.7741 -1.95315 15.2434 -1.42448 15.3666 -1.27846C15.4369 -1.19517 15.4646 -1.15143 15.4387 -1.18911C15.4085 -1.23303 15.3697 -1.29246 15.2717 -1.44485L5.17757 5.04424ZM9.17648 8.68862C10.6678 9.30571 12.0333 9.30771 12.8941 9.23374C13.6703 9.16703 14.4337 8.9887 14.5944 8.9546L12.1044 -2.78421C11.8822 -2.73709 11.8228 -2.72373 11.7473 -2.70946C11.6918 -2.69898 11.7479 -2.71199 11.8666 -2.7222C12.0945 -2.74179 12.8469 -2.77934 13.7647 -2.39958L9.17648 8.68862ZM14.763 8.91629C15.204 8.80938 14.9681 8.88793 14.5904 8.90834C14.2673 8.92581 12.3423 9.00101 10.6889 7.34761L19.1742 -1.13767C17.2044 -3.1075 14.8146 -3.12129 13.9427 -3.07416C13.0162 -3.02408 12.1474 -2.79721 11.9358 -2.74591L14.763 8.91629ZM10.8376 7.4913C9.6909 6.42101 9.25595 5.14087 9.1246 4.23686C9.007 3.42747 9.11084 2.82296 9.14736 2.62989C9.20668 2.31636 9.29819 2.11253 9.11479 2.61688L20.3923 6.7178C20.4462 6.56952 20.7751 5.72294 20.9382 4.8606C21.0362 4.34286 21.6424 1.16109 19.0254 -1.28136L10.8376 7.4913ZM9.129 2.57822C9.03044 2.84356 8.71165 3.66623 8.53739 4.58444C8.35326 5.55466 8.20246 7.23048 8.99111 9.05045L20.0018 4.27916C20.5333 5.50582 20.3825 6.52901 20.327 6.82188C20.2959 6.98559 20.2653 7.07239 20.2759 7.03956C20.2882 7.00169 20.3108 6.93776 20.3781 6.75646L9.129 2.57822ZM8.95235 8.95892C9.70205 10.7707 10.9974 11.8097 11.7054 12.3022C12.3929 12.7805 13.1529 13.1529 13.3309 13.2446L18.8263 2.5769C18.616 2.46852 18.545 2.43265 18.4696 2.3914C18.4075 2.35736 18.4567 2.38078 18.5582 2.45135C18.6976 2.54832 19.5282 3.13244 20.0406 4.3707L8.95235 8.95892ZM13.4572 13.3078C13.8728 13.5097 13.6755 13.4407 13.3776 13.2149C13.1977 13.0786 12.7525 12.7195 12.3269 12.0914C11.86 11.4024 11.4037 10.3608 11.4037 9.05781H23.4037C23.4037 5.90777 21.2832 4.14935 20.6238 3.64981C19.8364 3.05326 18.9766 2.64805 18.7 2.5137L13.4572 13.3078ZM11.4037 9.05781C11.4037 9.05785 11.4036 9.06929 11.4037 9.08271C11.4037 9.09721 11.4039 9.11802 11.4042 9.14298C11.4048 9.19256 11.4063 9.26334 11.4101 9.34816C11.4175 9.50905 11.4353 9.7687 11.4878 10.0837C11.5596 10.5148 11.8408 12.0396 13.1808 13.3796L21.6661 4.89428C22.3646 5.59284 22.7517 6.32522 22.9653 6.84721C23.179 7.36969 23.2762 7.82102 23.3245 8.11099C23.4144 8.65023 23.4037 9.10233 23.4037 9.05781H11.4037ZM11.4234 9.13692C11.4234 9.01315 11.4273 8.89927 11.4331 8.79685C11.439 8.69431 11.447 8.59996 11.4559 8.51492C11.4736 8.34671 11.4961 8.20146 11.5169 8.08522C11.538 7.96814 11.5598 7.8669 11.5788 7.78541C11.5979 7.70344 11.6163 7.63273 11.6317 7.57616C11.6472 7.51934 11.6614 7.47084 11.6727 7.43311C11.6841 7.39527 11.694 7.36381 11.7012 7.34122C11.7084 7.31868 11.7142 7.30099 11.7173 7.2915C11.7202 7.28287 11.7226 7.27575 11.7214 7.27914C11.7213 7.27946 11.7177 7.29029 11.7136 7.3026C11.7093 7.31579 11.7023 7.33715 11.6939 7.36331C11.6856 7.38953 11.6746 7.42458 11.6621 7.46596C11.6497 7.50722 11.6346 7.5592 11.6181 7.61943C11.6018 7.67939 11.5826 7.75342 11.5627 7.83862C11.5429 7.92333 11.5204 8.0277 11.4989 8.14779C11.4775 8.26704 11.4545 8.4152 11.4366 8.58617C11.4275 8.67259 11.4194 8.76829 11.4135 8.87214C11.4075 8.97587 11.4037 9.09102 11.4037 9.21602H23.4037C23.4037 9.33979 23.3998 9.45367 23.394 9.55609C23.3881 9.65863 23.3801 9.75298 23.3711 9.83802C23.3535 10.0062 23.331 10.1515 23.3101 10.2677C23.2891 10.3848 23.2673 10.486 23.2483 10.5675C23.2291 10.6495 23.2108 10.7202 23.1953 10.7768C23.1798 10.8336 23.1657 10.8821 23.1543 10.9198C23.143 10.9577 23.1331 10.9891 23.1259 11.0117C23.1187 11.0343 23.1129 11.0519 23.1097 11.0614C23.1069 11.0701 23.1045 11.0772 23.1056 11.0738C23.1058 11.0735 23.1094 11.0627 23.1134 11.0503C23.1178 11.0372 23.1248 11.0158 23.1331 10.9896C23.1415 10.9634 23.1525 10.9284 23.1649 10.887C23.1773 10.8457 23.1925 10.7937 23.2089 10.7335C23.2253 10.6735 23.2445 10.5995 23.2644 10.5143C23.2842 10.4296 23.3067 10.3252 23.3282 10.2051C23.3496 10.0859 23.3725 9.93775 23.3905 9.76677C23.3995 9.68035 23.4077 9.58465 23.4136 9.48081C23.4195 9.37707 23.4234 9.26192 23.4234 9.13692H11.4234ZM11.4111 9.51565C11.3259 7.8104 12.0114 6.5577 12.5004 5.90505C12.9553 5.29778 13.4084 4.96952 13.5346 4.87995C13.7618 4.71865 13.8847 4.67929 13.4572 4.88693L18.7 15.681C18.9647 15.5525 19.76 15.1769 20.4816 14.6645C20.855 14.3995 21.5108 13.892 22.1042 13.0999C22.7316 12.2625 23.4913 10.8194 23.3962 8.9164L11.4111 9.51565Z" fill="#0AC2B7" mask="url(#path-6-inside-3_1_2126)"/>
</g>
</g>
</svg>
