<svg width="15" height="15" viewBox="0 0 15 15" fill="none" xmlns="http://www.w3.org/2000/svg">
<g id="Group 248">
<path id="Vector" d="M10.3595 9.52743L9.98367 9.92304C9.98367 9.92304 9.09047 10.8634 6.65245 8.29662C4.21445 5.72984 5.10763 4.78947 5.10763 4.78947L5.34427 4.54034C5.92723 3.92661 5.98218 2.94128 5.47357 2.22194L4.4332 0.750474C3.8037 -0.139846 2.58732 -0.257457 1.8658 0.502159L0.570808 1.86555C0.213051 2.24221 -0.0266918 2.73046 0.00238291 3.2721C0.0767611 4.65779 0.668874 7.63914 3.97291 11.1177C7.47667 14.8065 10.7642 14.9531 12.1087 14.8205C12.5339 14.7785 12.9037 14.5492 13.2017 14.2354L14.3737 13.0015C15.1649 12.1686 14.9418 10.7407 13.9295 10.158L12.3533 9.25071C11.6886 8.86813 10.8789 8.9805 10.3595 9.52743Z" fill="#0AC2B7"/>
</g>
</svg>
