<svg width="19" height="19" viewBox="0 0 19 19" fill="none" xmlns="http://www.w3.org/2000/svg">
<g id="price tag">
<g id="price tag_2">
<path id="Combined Shape" fill-rule="evenodd" clip-rule="evenodd" d="M17.8206 9.43935C18.0765 9.69533 18.2203 10.0438 18.2203 10.4063V16.8508C18.2203 17.6055 17.6092 18.2171 16.8538 18.2184L10.4064 18.2212C10.0444 18.2212 9.6963 18.0769 9.43845 17.8205L4.53766 12.9192C4.23732 14.3506 4.07219 15.9498 4.07219 17.7243C4.07219 17.976 3.86809 18.1801 3.6163 18.1801C3.36452 18.1801 3.16042 17.976 3.16042 17.7243C3.16042 15.6486 3.3797 13.7956 3.77514 12.1566L0.401372 8.78246C-0.133718 8.24876 -0.133718 7.38138 0.400938 6.84808L6.84723 0.400907C7.38176 -0.133636 8.24758 -0.133636 8.78211 0.400907L15.7593 7.37805C15.8897 7.04717 16.0058 6.71743 16.1041 6.39416C16.9051 3.75953 16.4393 2.26946 14.5745 2.26946C13.889 2.26946 13.2359 2.35775 12.6156 2.52693C12.3727 2.59317 12.122 2.44997 12.0558 2.20705C11.9896 1.96415 12.1328 1.71353 12.3757 1.64728C13.0738 1.45688 13.8076 1.35768 14.5745 1.35768C17.249 1.35768 17.9279 3.52981 16.9764 6.65939C16.8349 7.12499 16.6595 7.60208 16.4586 8.07739L17.8206 9.43935ZM4.05026 11.1422L1.0457 8.13734C0.867353 7.95945 0.867353 7.67069 1.04527 7.49321L7.49195 1.04561C7.67043 0.867162 7.95891 0.867162 8.13739 1.04563L15.3705 8.27871C14.5497 10.0317 13.409 11.6758 12.4744 12.3888C12.2743 12.5415 12.2357 12.8276 12.3885 13.0277C12.5412 13.2279 12.8273 13.2664 13.0274 13.1137C14.0318 12.3475 15.1882 10.7266 16.0542 8.96245L17.1758 10.0841C17.2605 10.1687 17.3085 10.2852 17.3085 10.4063V16.8508C17.3085 17.1024 17.1049 17.3062 16.8527 17.3067L10.4062 17.3094C10.2859 17.3094 10.1688 17.2609 10.0824 17.1749L4.78721 11.8792C5.01647 11.0346 5.29589 10.2552 5.61806 9.53915C5.95269 8.79555 6.30956 8.17686 6.66437 7.67748C6.8723 7.3848 7.02927 7.20044 7.11073 7.11897C7.28876 6.94095 7.28876 6.65228 7.11073 6.47426C6.93271 6.29623 6.64404 6.29623 6.46602 6.47426C6.34922 6.59101 6.15925 6.81421 5.92109 7.14938C5.53245 7.6964 5.1459 8.36651 4.78657 9.16504C4.50944 9.78095 4.26266 10.4398 4.05026 11.1422ZM12.7509 14.1189C13.5058 14.1189 14.1186 13.5061 14.1186 12.7512C14.1186 12.4995 14.3227 12.2954 14.5745 12.2954C14.8263 12.2954 15.0304 12.4995 15.0304 12.7512C15.0304 14.0096 14.0093 15.0307 12.7509 15.0307C11.4926 15.0307 10.4715 14.0096 10.4715 12.7512C10.4715 11.4929 11.4926 10.4718 12.7509 10.4718C13.0027 10.4718 13.2068 10.6759 13.2068 10.9277C13.2068 11.1795 13.0027 11.3836 12.7509 11.3836C11.9961 11.3836 11.3833 11.9964 11.3833 12.7512C11.3833 13.5061 11.9961 14.1189 12.7509 14.1189Z" fill="#0AC2B7"/>
</g>
</g>
</svg>
