<svg width="18" height="20" viewBox="0 0 18 20" fill="none" xmlns="http://www.w3.org/2000/svg">
<g id="Group 3236">
<path id="Vector" d="M6.84961 10.3602L8.13535 11.8002L11.3496 8.2002" stroke="#0AC2B7" stroke-linecap="round" stroke-linejoin="round"/>
<path id="Vector_2" d="M1 8.57502C1 5.69716 1 4.25825 1.33977 3.77417C1.67953 3.29008 3.03249 2.82696 5.73841 1.90071L6.25394 1.72425C7.66449 1.24142 8.36973 1 9.09999 1C9.83025 1 10.5355 1.24142 11.9461 1.72425L12.4616 1.90071C15.1675 2.82696 16.5205 3.29008 16.8602 3.77417C17.2 4.25825 17.2 5.69716 17.2 8.57502C17.2 9.00963 17.2 9.48105 17.2 9.99225C17.2 12.2467 16.4469 13.9855 15.4 15.3137M1.17356 11.8C1.94523 15.6685 5.11876 17.6616 7.2087 18.5746C7.85799 18.8581 8.18262 19 9.09999 19C10.0174 19 10.342 18.8581 10.9912 18.5746C11.5116 18.3472 12.0991 18.053 12.7 17.6795" stroke="#0AC2B7" stroke-linecap="round"/>
</g>
</svg>
