<svg width="12" height="15" viewBox="0 0 12 15" fill="none" xmlns="http://www.w3.org/2000/svg">
<g id="Group">
<path id="Vector" d="M11.3701 11.7414C10.8747 10.7639 10.0635 9.65675 8.74277 9.02734C7.98741 9.61402 7.06977 9.95944 6.08052 9.95944C5.09072 9.95944 4.17308 9.61405 3.4177 9.02734C2.097 9.65675 1.28572 10.764 0.790692 11.7414C0.133693 13.0379 0.648795 14.8724 1.78505 14.8724C2.92133 14.8724 6.08055 14.8724 6.08055 14.8724C6.08055 14.8724 9.23945 14.8724 10.3758 14.8724C11.512 14.8724 12.0271 13.0379 11.3701 11.7414Z" fill="#0AC2B7"/>
<path id="Vector_2" d="M6.07923 8.73333C8.01927 8.73333 9.5915 6.98725 9.5915 4.83373V3.89957C9.5915 1.74608 8.01927 0 6.07923 0C4.1389 0 2.56641 1.74608 2.56641 3.8996V4.83376C2.56641 6.98725 4.13892 8.73333 6.07923 8.73333Z" fill="#0AC2B7"/>
</g>
</svg>
